<svg width="14" height="14" viewBox="0 0 14 14" fill="none" xmlns="http://www.w3.org/2000/svg">
<path d="M12.4961 5.50025H8.59786C8.54599 5.49674 8.49716 5.47454 8.4604 5.43777C8.42364 5.401 8.40145 5.35214 8.39795 5.30025V1.50025C8.41261 1.30797 8.38723 1.11473 8.32342 0.93276C8.25962 0.75079 8.15876 0.584043 8.02724 0.443064C7.89572 0.302085 7.73639 0.189941 7.55933 0.11372C7.38227 0.0375005 7.19132 -0.0011366 6.99857 0.000252138C6.80067 -0.00341153 6.60406 0.032884 6.4205 0.106969C6.23694 0.181054 6.07019 0.291407 5.93023 0.431432C5.79027 0.571456 5.67996 0.738277 5.60591 0.921921C5.53186 1.10556 5.49558 1.30226 5.49924 1.50025V5.40025C5.49573 5.45214 5.47355 5.501 5.43679 5.53777C5.40003 5.57454 5.3512 5.59674 5.29933 5.60025H1.50103C1.3071 5.577 1.11043 5.5964 0.924764 5.65709C0.739102 5.71778 0.56893 5.81831 0.426139 5.95164C0.283347 6.08497 0.171384 6.24789 0.0980721 6.42901C0.0247606 6.61014 -0.00812977 6.80509 0.00169981 7.00025C0.011335 7.39504 0.172393 7.771 0.45151 8.05024C0.730628 8.32948 1.10642 8.49061 1.50103 8.50025H5.39929C5.45115 8.50376 5.49999 8.52596 5.53674 8.56273C5.5735 8.59951 5.59569 8.64836 5.5992 8.70025V12.6003C5.59439 12.7854 5.6273 12.9696 5.69592 13.1416C5.76454 13.3137 5.86744 13.4699 5.99836 13.6009C6.12927 13.7319 6.28546 13.8348 6.45742 13.9035C6.62937 13.9721 6.81349 14.0051 6.99857 14.0003C7.39319 13.9906 7.76897 13.8295 8.04809 13.5502C8.32721 13.271 8.48827 12.895 8.4979 12.5003V8.60025C8.50141 8.54836 8.5236 8.49951 8.56036 8.46273C8.59711 8.42596 8.64595 8.40376 8.69781 8.40025H12.5961C12.9648 8.39259 13.3163 8.24263 13.5771 7.98172C13.8379 7.72081 13.9878 7.36915 13.9954 7.00025C14.0118 6.79913 13.9842 6.59687 13.9146 6.40747C13.845 6.21808 13.7351 6.04608 13.5925 5.9034C13.4499 5.76072 13.2779 5.65076 13.0886 5.58115C12.8993 5.51154 12.6971 5.48394 12.4961 5.50025Z" fill="#131313"/>
</svg>
