<svg width="30" height="30" viewBox="0 0 30 30" fill="none" xmlns="http://www.w3.org/2000/svg">
<path d="M0 0H29.9255V16.1949L28.4443 18.5151L29.9255 20.5801V30H0V14.7332L0.925771 13.6659L0 12.645V0Z" fill="#555557"/>
<path d="M5.80859 20.9048V16.1948H10.7832L11.3169 16.8923L11.8683 16.1948H29.9249V20.58C29.9249 20.58 29.4527 20.9001 28.9066 20.9048H18.9083L18.3065 20.1623V20.9048H16.3346V19.6374C16.3346 19.6374 16.0652 19.8143 15.4829 19.8143H14.8117V20.9048H11.8261L11.2931 20.1923L10.752 20.9048H5.80859Z" fill="white"/>
<path d="M0 12.6448L1.12179 10.0229H3.06182L3.69845 11.4916V10.0229H6.11009L6.48907 11.0844L6.85649 10.0229H17.6822V10.5566C17.6822 10.5566 18.2513 10.0229 19.1866 10.0229L22.6991 10.0353L23.3248 11.4847V10.0229H25.343L25.8984 10.8555V10.0229H27.9351V14.7329H25.8984L25.3661 13.8977V14.7329H22.401L22.1028 13.9905H21.3056L21.0123 14.7329H19.0014C18.1967 14.7329 17.6822 14.2102 17.6822 14.2102V14.7329H14.6503L14.0486 13.9905V14.7329H2.77442L2.47644 13.9905H1.68184L1.38597 14.7329H0V12.6448Z" fill="white"/>
<path d="M1.51892 10.604L0.00585938 14.1307H0.990937L1.27011 13.4245H2.89311L3.17084 14.1307H4.17761L2.666 10.604H1.51892ZM2.07872 11.4248L2.57343 12.6588H1.58256L2.07872 11.4248Z" fill="#555557"/>
<path d="M4.28125 14.1297V10.603L5.6811 10.6082L6.4953 12.882L7.29 10.603H8.67866V14.1297H7.79918V11.5311L6.86691 14.1297H6.0956L5.16073 11.5311V14.1297H4.28125Z" fill="#555557"/>
<path d="M9.28125 14.1297V10.603H12.1511V11.3919H10.17V11.9951H12.1049V12.7376H10.17V13.3641H12.1511V14.1297H9.28125Z" fill="#555557"/>
<path d="M12.6602 10.604V14.1307H13.5396V12.8778H13.9099L14.9645 14.1307H16.0392L14.882 12.8314C15.3569 12.7912 15.8468 12.3826 15.8468 11.7481C15.8468 11.006 15.2658 10.604 14.6173 10.604H12.6602ZM13.5396 11.3929H14.545C14.7861 11.3929 14.9616 11.582 14.9616 11.7641C14.9616 11.9984 14.7343 12.1353 14.558 12.1353H13.5396V11.3929Z" fill="#555557"/>
<path d="M17.1031 14.1297H16.2051V10.603H17.1031V14.1297Z" fill="#555557"/>
<path d="M19.2324 14.1297H19.0385C18.1007 14.1297 17.5312 13.389 17.5312 12.3809C17.5312 11.3478 18.0943 10.603 19.2786 10.603H20.2507V11.4383H19.2431C18.7623 11.4383 18.4223 11.8144 18.4223 12.3896C18.4223 13.0726 18.8111 13.3594 19.3712 13.3594H19.6027L19.2324 14.1297Z" fill="#555557"/>
<path d="M21.1459 10.604L19.6328 14.1307H20.6179L20.8971 13.4245H22.5201L22.7978 14.1307H23.8046L22.293 10.604H21.1459ZM21.7057 11.4248L22.2004 12.6588H21.2095L21.7057 11.4248Z" fill="#555557"/>
<path d="M23.9082 14.1297V10.603H25.0264L26.4541 12.8188V10.603H27.3336V14.1297H26.2516L24.7877 11.8559V14.1297H23.9082Z" fill="#555557"/>
<path d="M6.41016 20.3016V16.7749H9.28005V17.5638H7.2989V18.167H9.23376V18.9095H7.2989V19.5359H9.28005V20.3016H6.41016Z" fill="#555557"/>
<path d="M20.4727 20.3016V16.7749H23.3425V17.5638H21.3614V18.167H23.287V18.9095H21.3614V19.5359H23.3425V20.3016H20.4727Z" fill="#555557"/>
<path d="M9.39264 20.3016L10.79 18.56L9.35938 16.7749H10.4674L11.3194 17.8784L12.1743 16.7749H13.2389L11.8271 18.5382L13.227 20.3016H12.1192L11.2919 19.2154L10.4848 20.3016H9.39264Z" fill="#555557"/>
<path d="M13.332 16.7754V20.3021H14.2347V19.1884H15.1604C15.9438 19.1884 16.5375 18.7718 16.5375 17.9616C16.5375 17.2904 16.0718 16.7754 15.2747 16.7754H13.332ZM14.2347 17.573H15.2096C15.4627 17.573 15.6436 17.7284 15.6436 17.979C15.6436 18.2144 15.4636 18.385 15.2067 18.385H14.2347V17.573Z" fill="#555557"/>
<path d="M16.9199 16.7749V20.3016H17.7994V19.0487H18.1697L19.2242 20.3016H20.299L19.1418 19.0023C19.6167 18.9621 20.1066 18.5535 20.1066 17.919C20.1066 17.1769 19.5255 16.7749 18.8771 16.7749H16.9199ZM17.7994 17.5638H18.8047C19.0459 17.5638 19.2213 17.7529 19.2213 17.935C19.2213 18.1693 18.994 18.3062 18.8178 18.3062H17.7994V17.5638Z" fill="#555557"/>
<path d="M23.7503 20.3016V19.5359H25.5105C25.7709 19.5359 25.8837 19.3948 25.8837 19.2401C25.8837 19.0918 25.7713 18.942 25.5105 18.942H24.7151C24.0237 18.942 23.6387 18.5197 23.6387 17.8857C23.6387 17.3202 23.9913 16.7749 25.0186 16.7749H26.7313L26.361 17.5684H24.8798C24.5966 17.5684 24.5095 17.7174 24.5095 17.8596C24.5095 18.0058 24.6172 18.167 24.8335 18.167H25.6667C26.4374 18.167 26.7718 18.6053 26.7718 19.1792C26.7718 19.7962 26.3992 20.3016 25.6247 20.3016H23.7503Z" fill="#555557"/>
<path d="M26.9789 20.3016V19.5359H28.739C28.9994 19.5359 29.1122 19.3948 29.1122 19.2401C29.1122 19.0918 28.9998 18.942 28.739 18.942H27.9436C27.2522 18.942 26.8672 18.5197 26.8672 17.8857C26.8672 17.3202 27.2198 16.7749 28.2472 16.7749H29.9598L29.5895 17.5684H28.1083C27.8252 17.5684 27.738 17.7174 27.738 17.8596C27.738 18.0058 27.8457 18.167 28.062 18.167H28.8952C29.6659 18.167 30.0003 18.6053 30.0003 19.1792C30.0003 19.7962 29.6277 20.3016 28.8532 20.3016H26.9789Z" fill="#555557"/>
</svg>
