<svg width="32" height="31" viewBox="0 0 32 31" fill="none" xmlns="http://www.w3.org/2000/svg">
<path d="M0 2.8142V28.1858C0.00294397 28.9273 0.295035 29.6379 0.813273 30.1643C1.33151 30.6908 2.03437 30.9909 2.77024 31H3.88565C4.62563 30.9988 5.3349 30.7017 5.85771 30.1741C6.38053 29.6465 6.67418 28.9314 6.67418 28.1858V2.8142C6.67418 2.06863 6.38053 1.35352 5.85771 0.825888C5.3349 0.298254 4.62563 0.00122025 3.88565 0H2.76796C2.03248 0.00965795 1.33021 0.310049 0.812459 0.836448C0.294711 1.36285 0.00293484 2.07311 0 2.8142H0Z" fill="#35363A"/>
<path d="M12.6582 17.6106V28.1857C12.6611 28.9272 12.9532 29.6378 13.4715 30.1643C13.9897 30.6908 14.6926 30.9909 15.4284 31H16.553C17.293 30.9987 18.0022 30.7017 18.5251 30.1741C19.0479 29.6464 19.3415 28.9313 19.3415 28.1857V17.6106C19.3385 16.867 19.0435 16.1549 18.521 15.6297C17.9985 15.1046 17.291 14.8091 16.553 14.8079H15.4262C14.6926 14.8175 13.9921 15.1163 13.4746 15.6403C12.9572 16.1642 12.6641 16.8715 12.6582 17.6106Z" fill="#35363A"/>
<path d="M25.3164 9.57557V28.1857C25.3194 28.9272 25.6114 29.6378 26.1297 30.1642C26.6479 30.6907 27.3508 30.9908 28.0866 30.9999H29.2112C29.9512 30.9987 30.6604 30.7016 31.1833 30.174C31.7061 29.6464 31.9997 28.9313 31.9997 28.1857V9.57557C31.9991 8.83039 31.7052 8.11588 31.1825 7.58874C30.6597 7.06161 29.9508 6.76489 29.2112 6.76367H28.0844C27.3491 6.77273 26.6468 7.07262 26.129 7.59865C25.6112 8.12468 25.3194 8.8347 25.3164 9.57557Z" fill="#35363A"/>
</svg>
