<svg width="15" height="12" viewBox="0 0 15 12" fill="none" xmlns="http://www.w3.org/2000/svg">
<path fill-rule="evenodd" clip-rule="evenodd" d="M7.17902 10.1556L10.26 7.08991L1.06602 7.04763C0.925333 7.0471 0.786134 7.01864 0.656385 6.96389C0.526636 6.90914 0.408885 6.82916 0.309872 6.72854C0.210858 6.62792 0.132525 6.50862 0.0793567 6.37749C0.026188 6.24635 -0.000772996 6.10594 1.68656e-05 5.9643C0.00067166 5.82275 0.0290302 5.68271 0.0834714 5.55219C0.137913 5.42168 0.217369 5.30324 0.317298 5.20366C0.417228 5.10408 0.535671 5.0253 0.665856 4.97184C0.796042 4.91837 0.935418 4.89126 1.07602 4.89205L10.268 4.93333L7.22802 1.83639C7.12893 1.73595 7.05048 1.61683 6.99715 1.48583C6.94383 1.35484 6.91666 1.21456 6.91722 1.07299C6.91778 0.931424 6.94604 0.791357 7.0004 0.660796C7.05476 0.530235 7.13414 0.411742 7.23402 0.312089C7.43594 0.110933 7.70891 -0.00130988 7.99297 1.15367e-05C8.27702 0.00133295 8.54895 0.116111 8.74902 0.319137L13.749 5.4025C13.9129 5.5694 14.0042 5.795 14.0029 6.02969C14.0016 6.26438 13.9078 6.48894 13.742 6.65396L8.68902 11.688C8.48726 11.8891 8.21446 12.0013 7.93057 12C7.64667 11.9987 7.37491 11.8839 7.17502 11.6809C7.07577 11.5805 6.99714 11.4614 6.94363 11.3304C6.89012 11.1994 6.86277 11.0591 6.86314 10.9175C6.86351 10.7758 6.8916 10.6356 6.9458 10.5049C7 10.3742 7.07925 10.2555 7.17902 10.1556Z" fill="#131313"/>
</svg>
