<svg width="44" height="45" viewBox="0 0 44 45" fill="none" xmlns="http://www.w3.org/2000/svg">
<g opacity="0.7">
<path d="M29.7537 24.9706L22.0028 17.2197L14.252 24.9706L16.1965 26.9151L20.6278 22.4837V43.1252H23.3778V22.4837L27.8092 26.9151L29.7537 24.9706Z" fill="#555557"/>
<path d="M34.375 14.3749V14.25C34.375 7.42656 28.8234 1.875 22 1.875C15.1766 1.875 9.625 7.42656 9.625 14.25V14.4641C7.58838 14.8484 5.71089 15.8264 4.22864 17.275C3.32662 18.1505 2.60932 19.198 2.11917 20.3555C1.62902 21.513 1.37597 22.7571 1.375 24.0141C1.375 26.6884 2.47397 29.2359 4.46961 31.1872C6.41953 33.0939 9.05248 34.1875 11.6935 34.1875H17.1875V31.4375H11.6935C7.66167 31.4375 4.125 27.9686 4.125 24.0141C4.125 20.3817 7.18781 17.3182 11.0977 17.0399L12.375 16.9489V14.25C12.375 11.6973 13.3891 9.24913 15.1941 7.4441C16.9991 5.63906 19.4473 4.625 22 4.625C24.5527 4.625 27.0009 5.63906 28.8059 7.4441C30.6109 9.24913 31.625 11.6973 31.625 14.25V17.0034L32.9828 17.0206C36.9765 17.0712 39.875 20.0124 39.875 24.0141C39.875 28.1768 36.811 31.4375 32.8995 31.4375H26.8125V34.1875H32.8995C34.2096 34.1918 35.5063 33.9231 36.7069 33.3985C37.9074 32.8739 38.9855 32.105 39.8724 31.1407C41.6475 29.2323 42.625 26.7014 42.625 24.0141C42.625 18.9922 39.1631 15.0571 34.375 14.3749Z" fill="#555557"/>
</g>
</svg>
