<svg width="18" height="17" viewBox="0 0 18 17" fill="none" xmlns="http://www.w3.org/2000/svg">
<path d="M16.0624 13.0427L15.3503 12.3406L15.3497 12.3413L16.0624 13.0427ZM16.0624 1.95185L15.3497 2.6533L15.3503 2.65391L16.0624 1.95185ZM1.9376 1.95185L2.64972 2.65391L2.65032 2.6533L1.9376 1.95185ZM1.9376 13.0427L2.65056 12.3415L2.64972 12.3406L1.9376 13.0427ZM4.10131 14.9068C4.6509 14.9613 5.14061 14.56 5.19512 14.0104C5.24962 13.4608 4.84828 12.9711 4.29869 12.9166L4.10131 14.9068ZM7.5272 14.9245L7.06112 14.0397L7.06104 14.0398L7.5272 14.9245ZM4.736 15.9194L5.3 15.0936L5.29883 15.0928L4.736 15.9194ZM4.5664 13.1548L5.56238 13.2443L5.56248 13.2432L4.5664 13.1548ZM5.59608 12.8647C5.64492 12.3146 5.23855 11.8291 4.68843 11.7802C4.13831 11.7314 3.65276 12.1378 3.60392 12.6879L5.59608 12.8647ZM10.6 14.9946C12.0797 14.9946 13.2917 14.9967 14.2465 14.8664C15.2316 14.7319 16.0905 14.4397 16.7751 13.7442L15.3497 12.3413C15.0975 12.5975 14.7336 12.7813 13.9759 12.8848C13.1879 12.9924 12.1371 12.9946 10.6 12.9946V14.9946ZM16.7745 13.7448C17.4576 13.0518 17.7426 12.186 17.8741 11.1932C18.0021 10.2276 18 9.00074 18 7.49728H16C16 9.05647 15.9979 10.1268 15.8915 10.9305C15.7886 11.707 15.6048 12.0825 15.3503 12.3406L16.7745 13.7448ZM18 7.49728C18 5.99382 18.0021 4.76697 17.8741 3.80137C17.7426 2.80855 17.4576 1.9427 16.7745 1.24979L15.3503 2.65391C15.6048 2.91204 15.7886 3.28758 15.8915 4.06404C15.9979 4.86773 16 5.93808 16 7.49728H18ZM16.7751 1.2504C16.0905 0.554809 15.2316 0.262678 14.2465 0.128175C13.2917 -0.00218916 12.0797 0 10.6 0V2C12.1371 2 13.1879 2.00219 13.9759 2.10979C14.7336 2.21325 15.0975 2.39704 15.3497 2.6533L16.7751 1.2504ZM10.6 0H7.4V2H10.6V0ZM7.4 0C5.9203 0 4.70828 -0.00218916 3.75351 0.128175C2.76843 0.262678 1.90947 0.554809 1.22488 1.2504L2.65032 2.6533C2.90253 2.39704 3.26637 2.21325 4.02409 2.10979C4.81212 2.00219 5.8629 2 7.4 2V0ZM1.22548 1.24979C0.54236 1.9427 0.257394 2.80855 0.125862 3.80137C-0.00206327 4.76697 0 5.99382 0 7.49728H2C2 5.93808 2.00206 4.86773 2.10854 4.06404C2.21141 3.28758 2.39524 2.91204 2.64972 2.65391L1.22548 1.24979ZM0 7.49728C0 9.00074 -0.00206327 10.2276 0.125862 11.1932C0.257394 12.186 0.54236 13.0518 1.22548 13.7448L2.64972 12.3406C2.39524 12.0825 2.21141 11.707 2.10854 10.9305C2.00206 10.1268 2 9.05647 2 7.49728H0ZM1.22464 13.7439C1.98909 14.5212 2.97043 14.7947 4.10131 14.9068L4.29869 12.9166C3.34957 12.8225 2.93091 12.6265 2.65056 12.3415L1.22464 13.7439ZM10.6 12.9946C9.36814 12.9946 8.10505 13.4898 7.06112 14.0397L7.99328 15.8092C8.93815 15.3115 9.85426 14.9946 10.6 14.9946V12.9946ZM7.06104 14.0398C6.23858 14.4731 5.69801 14.7564 5.31283 14.9083C5.12221 14.9835 5.03654 14.9986 5.01804 15.0003C5.01373 15.0007 5.1467 14.9889 5.3 15.0936L4.172 16.7452C4.5221 16.9843 4.90257 17.0205 5.20876 16.9912C5.50076 16.9632 5.78859 16.8706 6.04677 16.7688C6.55919 16.5666 7.21742 16.218 7.99336 15.8092L7.06104 14.0398ZM5.29883 15.0928C5.55481 15.2671 5.45919 15.489 5.44715 15.0342C5.43717 14.6571 5.48514 14.1036 5.56238 13.2443L3.57042 13.0652C3.49806 13.8701 3.43403 14.5649 3.44785 15.0871C3.45961 15.5314 3.52359 16.3036 4.17317 16.7459L5.29883 15.0928ZM5.56248 13.2432L5.59608 12.8647L3.60392 12.6879L3.57032 13.0663L5.56248 13.2432Z" fill="#555557"/>
</svg>
