<svg width="16" height="18" viewBox="0 0 16 18" fill="none" xmlns="http://www.w3.org/2000/svg">
<path d="M9.04308 17.0156C9.24935 17.0156 9.42262 16.8406 9.42262 16.6323V13.949C9.42262 12.424 10.6602 11.174 12.1784 11.1656C12.7972 11.1656 13.3005 11.1573 13.6718 11.1573L13.8124 11.1579C14.066 11.1598 14.4075 11.1656 14.7031 11.1656C14.9177 11.1656 15.0827 10.999 15.0827 10.7906V4.09062C15.0827 2.02396 13.416 0.348957 11.3698 0.348957H4.81041C2.65694 0.348957 0.916016 2.10729 0.916016 4.27396V13.2573C0.916016 15.324 2.57443 17.0156 4.63714 17.0156H9.04308ZM7.69819 11.399C7.35991 11.399 7.07938 11.124 7.07938 10.774V6.75729L5.7675 8.09062C5.52823 8.33229 5.14044 8.33229 4.90117 8.09062C4.66189 7.84896 4.66189 7.45729 4.90117 7.20729L7.2609 4.81562C7.31866 4.75729 7.38466 4.71562 7.45892 4.68229C7.53318 4.64896 7.61569 4.63229 7.69819 4.63229C7.7807 4.63229 7.85496 4.64896 7.92922 4.68229C8.00348 4.71562 8.06948 4.75729 8.12724 4.81562L10.4952 7.20729C10.7345 7.45729 10.7345 7.84896 10.487 8.09062C10.2477 8.33229 9.85991 8.33229 9.62064 8.09062L8.30876 6.75729V10.774C8.30876 11.124 8.03648 11.399 7.69819 11.399ZM10.6202 16.2605C10.6202 16.6197 11.0517 16.798 11.2976 16.5389C12.1904 15.6022 13.7489 13.9647 14.6202 13.0497C14.8611 12.7972 14.6846 12.378 14.3364 12.3772C13.659 12.3747 12.8595 12.3772 12.2844 12.383C11.3719 12.383 10.6202 13.1422 10.6202 14.0639V16.2605Z" fill="#FBBC15"/>
</svg>
