<svg width="17" height="11" viewBox="0 0 17 11" fill="none" xmlns="http://www.w3.org/2000/svg">
<path fill-rule="evenodd" clip-rule="evenodd" d="M16.5142 10.7608C15.9777 11.157 15.2166 11.0499 14.8142 10.5217L14.7186 10.3961C14.6862 10.3536 14.6571 10.3096 14.6313 10.2645C14.5945 10.2274 14.5598 10.1876 14.5274 10.145L14.3361 9.89396C14.3037 9.8514 14.2746 9.80742 14.2488 9.76229C14.212 9.72525 14.1773 9.68543 14.1449 9.64287L13.9536 9.39179C13.9212 9.34923 13.8921 9.30524 13.8663 9.26012C13.8295 9.22308 13.7948 9.18326 13.7624 9.1407L13.5711 8.88962C13.5387 8.84706 13.5096 8.80307 13.4838 8.75795C13.447 8.72091 13.4123 8.68109 13.3799 8.63853L13.1886 8.38745C13.1562 8.34489 13.1271 8.3009 13.1013 8.25578C13.0645 8.21873 13.0298 8.17891 12.9974 8.13636L12.8061 7.88528C12.7737 7.84272 12.7446 7.79873 12.7188 7.75361C12.682 7.71656 12.6473 7.67674 12.6149 7.63419L12.4236 7.3831C12.3912 7.34055 12.3621 7.29656 12.3363 7.25144C12.2995 7.21439 12.2648 7.17457 12.2324 7.13202L12.0411 6.88093C12.0087 6.83838 11.9796 6.79439 11.9538 6.74927C11.917 6.71222 11.8823 6.6724 11.8499 6.62985L11.6586 6.37876C11.6262 6.33621 11.5971 6.29222 11.5713 6.2471C11.5345 6.21005 11.4998 6.17023 11.4674 6.12768L11.2761 5.87659C11.2437 5.83404 11.2146 5.79005 11.1888 5.74492C11.152 5.70788 11.1173 5.66806 11.0849 5.62551L10.8936 5.37442C10.8612 5.33187 10.8321 5.28788 10.8063 5.24275C10.7695 5.20571 10.7348 5.16589 10.7024 5.12333L10.5111 4.87225C10.4787 4.8297 10.4496 4.78571 10.4238 4.74058C10.387 4.70354 10.3523 4.66372 10.3199 4.62116L10.1286 4.37008C10.0962 4.32752 10.0671 4.28354 10.0413 4.23841C10.0046 4.20137 9.96981 4.16155 9.9374 4.11899L9.74615 3.86791C9.71374 3.82535 9.68464 3.78136 9.65882 3.73624C9.62205 3.6992 9.58731 3.65938 9.5549 3.61682L9.36365 3.36574C9.33124 3.32318 9.30214 3.27919 9.27632 3.23407C9.23956 3.19702 9.20482 3.1572 9.1724 3.11465L8.98116 2.86357C8.94874 2.82101 8.91965 2.77702 8.89382 2.7319C8.85706 2.69485 8.82232 2.65503 8.78991 2.61248L8.69428 2.48694C8.68745 2.47796 8.68067 2.47012 8.67407 2.46324C8.66768 2.45657 8.66138 2.44985 8.65517 2.44308C8.64763 2.43844 8.64013 2.43371 8.63265 2.42888C8.61809 2.41948 8.60229 2.41171 8.58532 2.40569C8.57639 2.40252 8.56751 2.39926 8.5587 2.39591C8.54906 2.39504 8.5394 2.39406 8.52972 2.39296C8.51002 2.39073 8.48998 2.39073 8.47028 2.39296C8.46061 2.39406 8.45095 2.39504 8.4413 2.39591C8.43249 2.39926 8.42362 2.40252 8.41468 2.40569C8.39771 2.41171 8.38191 2.41948 8.36735 2.42888C8.35988 2.43371 8.35237 2.43844 8.34483 2.44309C8.33862 2.44986 8.33232 2.45657 8.32593 2.46324C8.31933 2.47012 8.31255 2.47796 8.30572 2.48694L8.21009 2.61248C8.17768 2.65504 8.14294 2.69486 8.10618 2.7319C8.08035 2.77702 8.05126 2.82101 8.01884 2.86357L7.8276 3.11465C7.79518 3.15721 7.76044 3.19703 7.72368 3.23407C7.69786 3.2792 7.66876 3.32318 7.63635 3.36574L7.4451 3.61682C7.41269 3.65938 7.37795 3.6992 7.34118 3.73624C7.31536 3.78137 7.28626 3.82536 7.25385 3.86791L7.0626 4.11899C7.03019 4.16155 6.99545 4.20137 6.95868 4.23841C6.93286 4.28354 6.90377 4.32753 6.87135 4.37008L6.6801 4.62116C6.64769 4.66372 6.61295 4.70354 6.57619 4.74058C6.55037 4.78571 6.52127 4.8297 6.48886 4.87225L6.29761 5.12334C6.2652 5.16589 6.23046 5.20571 6.19369 5.24275C6.16787 5.28788 6.13877 5.33187 6.10636 5.37442L5.91511 5.62551C5.8827 5.66806 5.84796 5.70788 5.8112 5.74492C5.78537 5.79005 5.75628 5.83404 5.72386 5.87659L5.53261 6.12768C5.5002 6.17023 5.46546 6.21005 5.4287 6.2471C5.40288 6.29222 5.37378 6.33621 5.34137 6.37876L5.15012 6.62985C5.11771 6.6724 5.08297 6.71222 5.0462 6.74927C5.02038 6.79439 4.99128 6.83838 4.95887 6.88093L4.76762 7.13202C4.73521 7.17457 4.70047 7.21439 4.6637 7.25144C4.63788 7.29656 4.60878 7.34055 4.57637 7.3831L4.38512 7.63419C4.35271 7.67674 4.31797 7.71656 4.28121 7.75361C4.25538 7.79873 4.22629 7.84272 4.19388 7.88528L4.00263 8.13636C3.97022 8.17891 3.93547 8.21874 3.89871 8.25578C3.87289 8.3009 3.84379 8.34489 3.81138 8.38745L3.62013 8.63853C3.58772 8.68109 3.55298 8.72091 3.51621 8.75795C3.49039 8.80307 3.46129 8.84706 3.42888 8.88962L3.23763 9.1407C3.20522 9.18326 3.17048 9.22308 3.13372 9.26012C3.10789 9.30525 3.0788 9.34923 3.04638 9.39179L2.85514 9.64287C2.82272 9.68543 2.78798 9.72525 2.75122 9.76229C2.7254 9.80742 2.6963 9.85141 2.66389 9.89396L2.47264 10.145C2.44023 10.1876 2.40549 10.2274 2.36872 10.2645C2.3429 10.3096 2.3138 10.3536 2.28139 10.3961L2.18577 10.5217C1.78339 11.0499 1.02228 11.157 0.485783 10.7608C-0.0507183 10.3646 -0.159447 9.61517 0.242928 9.0869L0.338551 8.96136C0.370962 8.9188 0.405703 8.87898 0.442467 8.84194C0.468291 8.79681 0.497387 8.75282 0.529799 8.71027L0.721047 8.45919C0.75346 8.41663 0.788201 8.37681 0.824963 8.33977C0.850788 8.29464 0.879883 8.25065 0.912297 8.2081L1.10354 7.95701C1.13596 7.91446 1.1707 7.87464 1.20746 7.8376C1.23328 7.79247 1.26238 7.74848 1.29479 7.70593L1.48604 7.45484C1.51845 7.41229 1.5532 7.37247 1.58996 7.33542C1.61578 7.2903 1.64488 7.24631 1.67729 7.20376L1.86854 6.95267C1.90095 6.91012 1.93569 6.8703 1.97246 6.83325C1.99828 6.78813 2.02737 6.74414 2.05979 6.70159L2.25104 6.4505C2.28345 6.40795 2.31819 6.36813 2.35495 6.33108C2.38078 6.28596 2.40987 6.24197 2.44228 6.19942L2.63353 5.94833C2.66594 5.90578 2.70068 5.86596 2.73745 5.82891C2.76327 5.78379 2.79237 5.7398 2.82478 5.69725L3.01603 5.44616C3.04844 5.40361 3.08318 5.36379 3.11995 5.32674C3.14577 5.28162 3.17487 5.23763 3.20728 5.19507L3.39853 4.94399C3.43094 4.90144 3.46568 4.86161 3.50244 4.82457C3.52827 4.77945 3.55736 4.73546 3.58977 4.6929L3.78102 4.44182C3.81344 4.39926 3.84818 4.35944 3.88494 4.3224C3.91076 4.27728 3.93986 4.23329 3.97227 4.19073L4.16352 3.93965C4.19593 3.89709 4.23067 3.85727 4.26744 3.82023C4.29326 3.7751 4.32236 3.73112 4.35477 3.68856L4.54602 3.43748C4.57843 3.39492 4.61317 3.3551 4.64993 3.31806C4.67576 3.27293 4.70485 3.22894 4.73727 3.18639L4.92851 2.93531C4.96093 2.89275 4.99567 2.85293 5.03243 2.81589C5.05825 2.77076 5.08735 2.72677 5.11976 2.68422L5.31101 2.43313C5.34342 2.39058 5.37816 2.35076 5.41493 2.31372C5.44075 2.26859 5.46985 2.2246 5.50226 2.18205L5.69351 1.93096C5.72592 1.88841 5.76066 1.84859 5.79742 1.81155C5.82325 1.76642 5.85234 1.72243 5.88476 1.67988L6.076 1.42879C6.10842 1.38624 6.14316 1.34642 6.17992 1.30938C6.20574 1.26425 6.23484 1.22026 6.26725 1.17771L6.36288 1.05217C6.4247 0.971003 6.49063 0.894012 6.56029 0.821374C6.63313 0.745437 6.71366 0.680968 6.79958 0.628037C6.86775 0.553715 6.9466 0.486674 7.03563 0.429188C7.21187 0.315388 7.39874 0.224342 7.59158 0.155937C7.69119 0.120601 7.79243 0.0988752 7.89318 0.0897886C7.98734 0.0539915 8.0876 0.0292579 8.19254 0.0173628C8.3968 -0.00578956 8.60321 -0.00578954 8.80746 0.0173619C8.9124 0.0292571 9.01266 0.0539916 9.10683 0.0897887C9.20757 0.0988744 9.30881 0.1206 9.40842 0.155937C9.60126 0.224341 9.78813 0.315386 9.96437 0.429187C10.0534 0.486674 10.1322 0.553714 10.2004 0.628037C10.2863 0.680969 10.3669 0.745436 10.4397 0.821373C10.5094 0.894012 10.5753 0.971001 10.6371 1.05217L10.7327 1.17771C10.7652 1.22026 10.7943 1.26425 10.8201 1.30937C10.8568 1.34642 10.8916 1.38624 10.924 1.42879L11.1152 1.67988C11.1477 1.72243 11.1768 1.76642 11.2026 1.81154C11.2393 1.84859 11.2741 1.88841 11.3065 1.93096L11.4977 2.18205C11.5302 2.2246 11.5593 2.26859 11.5851 2.31371C11.6218 2.35076 11.6566 2.39058 11.689 2.43313L11.8802 2.68422C11.9127 2.72677 11.9417 2.77076 11.9676 2.81589C12.0043 2.85293 12.0391 2.89275 12.0715 2.9353L12.2627 3.18639C12.2951 3.22894 12.3242 3.27293 12.3501 3.31806C12.3868 3.3551 12.4216 3.39492 12.454 3.43748L12.6452 3.68856C12.6776 3.73112 12.7067 3.7751 12.7326 3.82023C12.7693 3.85727 12.8041 3.89709 12.8365 3.93965L13.0277 4.19073C13.0601 4.23329 13.0892 4.27728 13.1151 4.3224C13.1518 4.35944 13.1866 4.39926 13.219 4.44182L13.4102 4.6929C13.4426 4.73546 13.4717 4.77945 13.4976 4.82457C13.5343 4.86161 13.5691 4.90144 13.6015 4.94399L13.7927 5.19507C13.8251 5.23763 13.8542 5.28162 13.8801 5.32674C13.9168 5.36379 13.9516 5.40361 13.984 5.44616L14.1752 5.69725C14.2076 5.7398 14.2367 5.78379 14.2626 5.82891C14.2993 5.86596 14.3341 5.90578 14.3665 5.94833L14.5577 6.19942C14.5901 6.24197 14.6192 6.28596 14.645 6.33108C14.6818 6.36813 14.7166 6.40795 14.749 6.4505L14.9402 6.70159C14.9726 6.74414 15.0017 6.78813 15.0275 6.83325C15.0643 6.8703 15.099 6.91012 15.1315 6.95267L15.3227 7.20376C15.3551 7.24631 15.3842 7.2903 15.41 7.33542C15.4468 7.37247 15.4815 7.41229 15.514 7.45484L15.7052 7.70593C15.7376 7.74848 15.7667 7.79247 15.7925 7.83759C15.8293 7.87464 15.864 7.91446 15.8965 7.95701L16.0877 8.2081C16.1201 8.25065 16.1492 8.29464 16.175 8.33977C16.2118 8.37681 16.2465 8.41663 16.279 8.45918L16.4702 8.71027C16.5026 8.75282 16.5317 8.79681 16.5575 8.84194C16.5943 8.87898 16.629 8.9188 16.6614 8.96136L16.7571 9.0869C17.1594 9.61517 17.0507 10.3646 16.5142 10.7608Z" fill="#292D32"/>
</svg>
