<svg width="17" height="11" viewBox="0 0 17 11" fill="none" xmlns="http://www.w3.org/2000/svg">
<path fill-rule="evenodd" clip-rule="evenodd" d="M0.485782 0.239199C1.02228 -0.157002 1.78339 -0.0499408 2.18577 0.478328L2.28139 0.603871C2.3138 0.646425 2.3429 0.690413 2.36872 0.735537C2.40549 0.772582 2.44023 0.812402 2.47264 0.854956L2.66389 1.10604C2.6963 1.1486 2.7254 1.19258 2.75122 1.23771C2.78798 1.27475 2.82272 1.31457 2.85514 1.35713L3.04639 1.60821C3.0788 1.65077 3.10789 1.69476 3.13372 1.73988C3.17048 1.77692 3.20522 1.81674 3.23763 1.8593L3.42888 2.11038C3.46129 2.15294 3.49039 2.19693 3.51621 2.24205C3.55298 2.27909 3.58772 2.31891 3.62013 2.36147L3.81138 2.61255C3.84379 2.65511 3.87289 2.6991 3.89871 2.74422C3.93547 2.78126 3.97021 2.82109 4.00263 2.86364L4.19388 3.11472C4.22629 3.15728 4.25538 3.20127 4.28121 3.24639C4.31797 3.28344 4.35271 3.32326 4.38512 3.36581L4.57637 3.6169C4.60879 3.65945 4.63788 3.70344 4.6637 3.74856C4.70047 3.78561 4.73521 3.82543 4.76762 3.86798L4.95887 4.11907C4.99128 4.16162 5.02038 4.20561 5.0462 4.25073C5.08296 4.28778 5.1177 4.3276 5.15012 4.37015L5.34137 4.62124C5.37378 4.66379 5.40287 4.70778 5.4287 4.7529C5.46546 4.78995 5.5002 4.82977 5.53261 4.87232L5.72386 5.12341C5.75628 5.16596 5.78537 5.20995 5.8112 5.25507C5.84796 5.29212 5.8827 5.33194 5.91511 5.37449L6.10636 5.62558C6.13877 5.66813 6.16787 5.71212 6.19369 5.75725C6.23045 5.79429 6.2652 5.83411 6.29761 5.87666L6.48886 6.12775C6.52127 6.1703 6.55037 6.21429 6.57619 6.25942C6.61295 6.29646 6.64769 6.33628 6.68011 6.37884L6.87135 6.62992C6.90377 6.67248 6.93286 6.71646 6.95869 6.76159C6.99545 6.79863 7.03019 6.83845 7.0626 6.88101L7.25385 7.13209C7.28626 7.17465 7.31536 7.21863 7.34118 7.26376C7.37795 7.3008 7.41269 7.34062 7.4451 7.38318L7.63635 7.63426C7.66876 7.67682 7.69786 7.72081 7.72368 7.76593C7.76044 7.80298 7.79518 7.8428 7.8276 7.88535L8.01884 8.13643C8.05126 8.17899 8.08035 8.22298 8.10618 8.2681C8.14294 8.30514 8.17768 8.34496 8.21009 8.38752L8.30572 8.51306C8.31255 8.52204 8.31933 8.52988 8.32593 8.53676C8.33232 8.54343 8.33862 8.55015 8.34483 8.55692C8.35237 8.56156 8.35987 8.56629 8.36735 8.57112C8.38191 8.58052 8.39771 8.58829 8.41468 8.59431C8.42361 8.59748 8.43249 8.60074 8.4413 8.60409C8.45094 8.60496 8.4606 8.60594 8.47028 8.60704C8.48998 8.60927 8.51002 8.60927 8.52972 8.60704C8.53939 8.60594 8.54906 8.60496 8.5587 8.60409C8.56751 8.60074 8.57638 8.59748 8.58532 8.59431C8.60229 8.58829 8.61809 8.58052 8.63265 8.57111C8.64013 8.56629 8.64763 8.56156 8.65517 8.55691C8.66138 8.55014 8.66768 8.54343 8.67407 8.53676C8.68067 8.52988 8.68745 8.52204 8.69428 8.51306L8.78991 8.38752C8.82232 8.34496 8.85706 8.30514 8.89382 8.2681C8.91965 8.22298 8.94874 8.17899 8.98116 8.13643L9.1724 7.88535C9.20482 7.84279 9.23956 7.80297 9.27632 7.76593C9.30214 7.7208 9.33124 7.67682 9.36365 7.63426L9.5549 7.38318C9.58731 7.34062 9.62205 7.3008 9.65882 7.26376C9.68464 7.21863 9.71374 7.17464 9.74615 7.13209L9.9374 6.881C9.96981 6.83845 10.0046 6.79863 10.0413 6.76159C10.0671 6.71646 10.0962 6.67247 10.1286 6.62992L10.3199 6.37883C10.3523 6.33628 10.387 6.29646 10.4238 6.25942C10.4496 6.21429 10.4787 6.1703 10.5111 6.12775L10.7024 5.87666C10.7348 5.83411 10.7695 5.79429 10.8063 5.75724C10.8321 5.71212 10.8612 5.66813 10.8936 5.62558L11.0849 5.37449C11.1173 5.33194 11.152 5.29212 11.1888 5.25507C11.2146 5.20995 11.2437 5.16596 11.2761 5.12341L11.4674 4.87232C11.4998 4.82977 11.5345 4.78995 11.5713 4.7529C11.5971 4.70778 11.6262 4.66379 11.6586 4.62124L11.8499 4.37015C11.8823 4.3276 11.917 4.28778 11.9538 4.25073C11.9796 4.20561 12.0087 4.16162 12.0411 4.11907L12.2324 3.86798C12.2648 3.82543 12.2995 3.78561 12.3363 3.74856C12.3621 3.70344 12.3912 3.65945 12.4236 3.61689L12.6149 3.36581C12.6473 3.32326 12.682 3.28343 12.7188 3.24639C12.7446 3.20127 12.7737 3.15728 12.8061 3.11472L12.9974 2.86364C13.0298 2.82108 13.0645 2.78126 13.1013 2.74422C13.1271 2.6991 13.1562 2.65511 13.1886 2.61255L13.3799 2.36147C13.4123 2.31891 13.447 2.27909 13.4838 2.24205C13.5096 2.19692 13.5387 2.15294 13.5711 2.11038L13.7624 1.8593C13.7948 1.81674 13.8295 1.77692 13.8663 1.73988C13.8921 1.69475 13.9212 1.65076 13.9536 1.60821L14.1449 1.35713C14.1773 1.31457 14.212 1.27475 14.2488 1.2377C14.2746 1.19258 14.3037 1.14859 14.3361 1.10604L14.5274 0.854954C14.5598 0.812401 14.5945 0.77258 14.6313 0.735535C14.6571 0.690412 14.6862 0.646423 14.7186 0.603869L14.8142 0.478328C15.2166 -0.0499407 15.9777 -0.157002 16.5142 0.2392C17.0507 0.635401 17.1594 1.38483 16.7571 1.9131L16.6614 2.03864C16.629 2.0812 16.5943 2.12102 16.5575 2.15806C16.5317 2.20319 16.5026 2.24717 16.4702 2.28973L16.279 2.54081C16.2465 2.58337 16.2118 2.62319 16.175 2.66023C16.1492 2.70536 16.1201 2.74934 16.0877 2.7919L15.8965 3.04298C15.864 3.08554 15.8293 3.12536 15.7925 3.1624C15.7667 3.20753 15.7376 3.25152 15.7052 3.29407L15.514 3.54516C15.4815 3.58771 15.4468 3.62753 15.41 3.66457C15.3842 3.7097 15.3551 3.75369 15.3227 3.79624L15.1315 4.04733C15.099 4.08988 15.0643 4.1297 15.0275 4.16675C15.0017 4.21187 14.9726 4.25586 14.9402 4.29841L14.749 4.5495C14.7166 4.59205 14.6818 4.63187 14.645 4.66892C14.6192 4.71404 14.5901 4.75803 14.5577 4.80058L14.3665 5.05167C14.3341 5.09422 14.2993 5.13404 14.2626 5.17109C14.2367 5.21621 14.2076 5.2602 14.1752 5.30275L13.984 5.55384C13.9516 5.59639 13.9168 5.63621 13.8801 5.67326C13.8542 5.71838 13.8251 5.76237 13.7927 5.80492L13.6015 6.05601C13.5691 6.09856 13.5343 6.13838 13.4976 6.17543C13.4717 6.22055 13.4426 6.26454 13.4102 6.3071L13.219 6.55818C13.1866 6.60073 13.1518 6.64055 13.1151 6.6776C13.0892 6.72272 13.0601 6.76671 13.0277 6.80927L12.8365 7.06035C12.8041 7.10291 12.7693 7.14273 12.7326 7.17977C12.7067 7.22489 12.6776 7.26888 12.6452 7.31144L12.454 7.56252C12.4216 7.60508 12.3868 7.6449 12.3501 7.68194C12.3242 7.72707 12.2951 7.77105 12.2627 7.81361L12.0715 8.06469C12.0391 8.10725 12.0043 8.14707 11.9676 8.18411C11.9417 8.22924 11.9127 8.27322 11.8802 8.31578L11.689 8.56686C11.6566 8.60942 11.6218 8.64924 11.5851 8.68628C11.5593 8.73141 11.5302 8.7754 11.4977 8.81795L11.3065 9.06903C11.2741 9.11159 11.2393 9.15141 11.2026 9.18845C11.1768 9.23358 11.1477 9.27757 11.1152 9.32012L10.924 9.57121C10.8916 9.61376 10.8568 9.65358 10.8201 9.69062C10.7943 9.73575 10.7652 9.77974 10.7327 9.82229L10.6371 9.94783C10.5753 10.029 10.5094 10.106 10.4397 10.1786C10.3669 10.2546 10.2863 10.319 10.2004 10.372C10.1322 10.4463 10.0534 10.5133 9.96437 10.5708C9.78813 10.6846 9.60126 10.7757 9.40842 10.8441C9.30881 10.8794 9.20757 10.9011 9.10683 10.9102C9.01266 10.946 8.9124 10.9707 8.80746 10.9826C8.60321 11.0058 8.3968 11.0058 8.19254 10.9826C8.0876 10.9707 7.98734 10.946 7.89318 10.9102C7.79243 10.9011 7.69119 10.8794 7.59158 10.8441C7.39874 10.7757 7.21188 10.6846 7.03563 10.5708C6.94659 10.5133 6.86775 10.4463 6.79958 10.372C6.71366 10.319 6.63312 10.2546 6.56029 10.1786C6.49062 10.106 6.4247 10.029 6.36288 9.94783L6.26725 9.82229C6.23484 9.77974 6.20574 9.73575 6.17992 9.69063C6.14316 9.65358 6.10842 9.61376 6.076 9.57121L5.88476 9.32012C5.85234 9.27757 5.82325 9.23358 5.79742 9.18846C5.76066 9.15141 5.72592 9.11159 5.69351 9.06904L5.50226 8.81795C5.46985 8.7754 5.44075 8.73141 5.41493 8.68629C5.37816 8.64924 5.34342 8.60942 5.31101 8.56687L5.11976 8.31578C5.08735 8.27323 5.05825 8.22924 5.03243 8.18411C4.99567 8.14707 4.96093 8.10725 4.92851 8.0647L4.73726 7.81361C4.70485 7.77105 4.67576 7.72707 4.64993 7.68194C4.61317 7.6449 4.57843 7.60508 4.54602 7.56252L4.35477 7.31144C4.32235 7.26888 4.29326 7.2249 4.26744 7.17977C4.23067 7.14273 4.19593 7.10291 4.16352 7.06035L3.97227 6.80927C3.93986 6.76671 3.91076 6.72272 3.88494 6.6776C3.84818 6.64056 3.81343 6.60074 3.78102 6.55818L3.58977 6.3071C3.55736 6.26454 3.52826 6.22055 3.50244 6.17543C3.46568 6.13839 3.43094 6.09856 3.39853 6.05601L3.20728 5.80493C3.17486 5.76237 3.14577 5.71838 3.11994 5.67326C3.08318 5.63621 3.04844 5.59639 3.01603 5.55384L2.82478 5.30275C2.79237 5.2602 2.76327 5.21621 2.73745 5.17109C2.70068 5.13404 2.66594 5.09422 2.63353 5.05167L2.44228 4.80058C2.40987 4.75803 2.38077 4.71404 2.35495 4.66892C2.31819 4.63187 2.28345 4.59205 2.25103 4.5495L2.05979 4.29841C2.02737 4.25586 1.99828 4.21187 1.97245 4.16675C1.93569 4.1297 1.90095 4.08988 1.86854 4.04733L1.67729 3.79624C1.64488 3.75369 1.61578 3.7097 1.58996 3.66458C1.55319 3.62753 1.51845 3.58771 1.48604 3.54516L1.29479 3.29407C1.26238 3.25152 1.23328 3.20753 1.20746 3.16241C1.1707 3.12536 1.13596 3.08554 1.10354 3.04299L0.912296 2.7919C0.879883 2.74935 0.850787 2.70536 0.824964 2.66023C0.788201 2.62319 0.75346 2.58337 0.721048 2.54082L0.529799 2.28973C0.497386 2.24718 0.46829 2.20319 0.442467 2.15806C0.405704 2.12102 0.370963 2.0812 0.338551 2.03864L0.242927 1.9131C-0.159449 1.38483 -0.050719 0.635401 0.485782 0.239199Z" fill="#292D32"/>
</svg>
