<svg width="16" height="17" viewBox="0 0 16 17" fill="none" xmlns="http://www.w3.org/2000/svg">
<path d="M9.04308 0.143555C9.24935 0.143555 9.42262 0.318555 9.42262 0.526888V3.21022C9.42262 4.73522 10.6602 5.98522 12.1784 5.99356C12.7972 5.99356 13.3005 6.00189 13.6718 6.00189L13.8124 6.00127C14.066 5.99934 14.4075 5.99356 14.7031 5.99356C14.9177 5.99356 15.0827 6.16022 15.0827 6.36855V13.0686C15.0827 15.1352 13.416 16.8102 11.3698 16.8102H4.81041C2.65694 16.8102 0.916016 15.0519 0.916016 12.8852V3.90189C0.916016 1.83522 2.57443 0.143555 4.63714 0.143555H9.04308ZM7.69819 5.76022C7.35991 5.76022 7.07938 6.03522 7.07938 6.38522V10.4019L5.7675 9.06855C5.52823 8.82689 5.14044 8.82689 4.90117 9.06855C4.66189 9.31022 4.66189 9.70189 4.90117 9.95189L7.2609 12.3436C7.31866 12.4019 7.38466 12.4436 7.45892 12.4769C7.53318 12.5102 7.61569 12.5269 7.69819 12.5269C7.7807 12.5269 7.85496 12.5102 7.92922 12.4769C8.00348 12.4436 8.06948 12.4019 8.12724 12.3436L10.4952 9.95189C10.7345 9.70189 10.7345 9.31022 10.487 9.06855C10.2477 8.82689 9.85991 8.82689 9.62064 9.06855L8.30876 10.4019V6.38522C8.30876 6.03522 8.03648 5.76022 7.69819 5.76022ZM10.6202 0.898638C10.6202 0.539471 11.0517 0.361138 11.2976 0.620305C12.1904 1.55697 13.7489 3.19447 14.6202 4.10947C14.8611 4.36197 14.6846 4.78114 14.3364 4.78197C13.659 4.78447 12.8595 4.78197 12.2844 4.77614C11.3719 4.77614 10.6202 4.01697 10.6202 3.0953V0.898638Z" fill="black"/>
</svg>
