<svg width="21" height="16" viewBox="0 0 21 16" fill="none" xmlns="http://www.w3.org/2000/svg">
<path d="M19.6487 6.962C20.1171 7.582 20.1171 8.419 19.6487 9.038C18.1732 10.987 14.6331 15 10.5002 15C6.36716 15 2.82714 10.987 1.35163 9.038C1.12372 8.74113 1 8.37592 1 8C1 7.62408 1.12372 7.25887 1.35163 6.962C2.82714 5.013 6.36716 1 10.5002 1C14.6331 1 18.1732 5.013 19.6487 6.962Z" stroke="#555557" stroke-width="2" stroke-linecap="round" stroke-linejoin="round"/>
<path d="M10.5002 11C12.1376 11 13.465 9.65685 13.465 8C13.465 6.34315 12.1376 5 10.5002 5C8.86271 5 7.53531 6.34315 7.53531 8C7.53531 9.65685 8.86271 11 10.5002 11Z" stroke="#555557" stroke-width="2" stroke-linecap="round" stroke-linejoin="round"/>
</svg>
