<svg width="24" height="32" viewBox="0 0 24 32" fill="none" xmlns="http://www.w3.org/2000/svg">
<path fill-rule="evenodd" clip-rule="evenodd" d="M4.28102 1.08738C4.44318 0.446905 5.00461 0 5.64706 0H16.2353C16.67 0 17.0805 0.206358 17.348 0.559399C17.6156 0.912441 17.7103 1.37279 17.6049 1.80732L15.9258 8.72726H22.5882C23.1497 8.72726 23.6578 9.0701 23.8823 9.6004C24.1067 10.1307 24.0048 10.7476 23.6227 11.1715L5.26983 31.5352C4.83391 32.0188 4.13655 32.1395 3.57122 31.829C3.00589 31.5185 2.71434 30.8548 2.86107 30.2123L5.27633 19.6363H1.41177C0.974514 19.6363 0.561932 19.4276 0.294598 19.0711C0.0272642 18.7146 -0.0646448 18.2506 0.0457294 17.8146L4.28102 1.08738ZM6.73778 2.90909L3.23907 16.7272H7.05882C7.49011 16.7272 7.89775 16.9304 8.16552 17.2787C8.4333 17.627 8.53184 18.0824 8.43306 18.5149L6.8317 25.5269L19.3507 11.6363H14.1176C13.6829 11.6363 13.2724 11.43 13.0049 11.0769C12.7373 10.7239 12.6426 10.2636 12.748 9.82902L14.4271 2.90909H6.73778Z" fill="#FBBC15"/>
<path fill-rule="evenodd" clip-rule="evenodd" d="M9.51887 5.13433C10.2753 5.32916 10.7352 6.11889 10.5461 6.89822L9.13431 12.7164C8.94521 13.4957 8.17872 13.9696 7.4223 13.7747C6.66589 13.5799 6.20599 12.7902 6.39509 12.0108L7.80686 6.19267C7.99596 5.41333 8.76245 4.9395 9.51887 5.13433Z" fill="#FBBC15"/>
</svg>
