<svg width="16" height="16" viewBox="0 0 16 16" fill="none" xmlns="http://www.w3.org/2000/svg">
<path d="M8.17346 3.16505C8.12693 3.12054 8.06503 3.0957 8.00065 3.0957C7.93626 3.0957 7.87436 3.12054 7.82783 3.16505L2.07471 8.66099C2.05027 8.68436 2.03084 8.71245 2.01757 8.74355C2.0043 8.77465 1.99748 8.80812 1.99752 8.84193L1.99658 14.0001C1.99658 14.2653 2.10194 14.5196 2.28948 14.7072C2.47701 14.8947 2.73137 15.0001 2.99658 15.0001H5.99971C6.13232 15.0001 6.25949 14.9474 6.35326 14.8536C6.44703 14.7598 6.49971 14.6327 6.49971 14.5001V10.2501C6.49971 10.1838 6.52605 10.1202 6.57293 10.0733C6.61982 10.0264 6.6834 10.0001 6.74971 10.0001H9.24971C9.31601 10.0001 9.3796 10.0264 9.42649 10.0733C9.47337 10.1202 9.49971 10.1838 9.49971 10.2501V14.5001C9.49971 14.6327 9.55239 14.7598 9.64616 14.8536C9.73992 14.9474 9.8671 15.0001 9.99971 15.0001H13.0016C13.2668 15.0001 13.5212 14.8947 13.7087 14.7072C13.8962 14.5196 14.0016 14.2653 14.0016 14.0001V8.84193C14.0016 8.80812 13.9948 8.77465 13.9815 8.74355C13.9683 8.71245 13.9488 8.68436 13.9244 8.66099L8.17346 3.16505Z" fill="#35363A"/>
<path d="M15.3409 7.6297L13.0034 5.39344V2C13.0034 1.86739 12.9508 1.74022 12.857 1.64645C12.7632 1.55268 12.636 1.5 12.5034 1.5H11.0034C10.8708 1.5 10.7437 1.55268 10.6499 1.64645C10.5561 1.74022 10.5034 1.86739 10.5034 2V3L8.69344 1.26938C8.52407 1.09813 8.27219 1 8.00001 1C7.72876 1 7.47751 1.09813 7.30813 1.26969L0.661262 7.62907C0.466887 7.81657 0.442512 8.12501 0.619387 8.32813C0.663803 8.37941 0.718187 8.4211 0.77923 8.45069C0.840273 8.48027 0.906698 8.49713 0.974462 8.50023C1.04223 8.50333 1.10991 8.49261 1.1734 8.46871C1.23689 8.44482 1.29485 8.40826 1.34376 8.36126L7.82813 2.165C7.87466 2.1205 7.93656 2.09566 8.00094 2.09566C8.06533 2.09566 8.12723 2.1205 8.17376 2.165L14.6588 8.36126C14.7543 8.45287 14.8822 8.50286 15.0146 8.50029C15.1469 8.49771 15.2728 8.44277 15.3647 8.34751C15.5566 8.14876 15.5406 7.82063 15.3409 7.6297Z" fill="#35363A"/>
</svg>
