<svg width="30" height="32" viewBox="0 0 30 32" fill="none" xmlns="http://www.w3.org/2000/svg">
<path d="M12.6316 0L24.1547 3.648C24.4761 3.74967 24.757 3.95277 24.9564 4.22766C25.1558 4.50255 25.2633 4.83483 25.2632 5.176V8H28.4211C28.8398 8 29.2414 8.16857 29.5375 8.46863C29.8336 8.76869 30 9.17565 30 9.6V22.4C30 22.8243 29.8336 23.2313 29.5375 23.5314C29.2414 23.8314 28.8398 24 28.4211 24L23.3368 24.0016C22.7258 24.8176 21.9837 25.5376 21.1263 26.1296L12.6316 32L4.13684 26.1312C2.86188 25.2503 1.81856 24.0672 1.09759 22.6847C0.376623 21.3021 -0.000159825 19.7621 5.08576e-08 18.1984V5.176C0.000190431 4.83511 0.107821 4.50318 0.307204 4.22862C0.506586 3.95405 0.787297 3.75119 1.10842 3.6496L12.6316 0ZM12.6316 3.3504L3.15789 6.352V18.1984C3.15767 19.178 3.37934 20.1445 3.80584 21.0236C4.23234 21.9026 4.85227 22.6708 5.6179 23.2688L5.91632 23.4864L12.6316 28.128L18.6032 24H11.0526C10.6339 24 10.2323 23.8314 9.93615 23.5314C9.64004 23.2313 9.47368 22.8243 9.47368 22.4V9.6C9.47368 9.17565 9.64004 8.76869 9.93615 8.46863C10.2323 8.16857 10.6339 8 11.0526 8H22.1053V6.352L12.6316 3.3504ZM12.6316 16V20.8H26.8421V16H12.6316ZM12.6316 12.8H26.8421V11.2H12.6316V12.8Z" fill="#FBBC15"/>
</svg>
