<svg width="16" height="16" viewBox="0 0 16 16" fill="none" xmlns="http://www.w3.org/2000/svg">
<path d="M10.7856 15H8.5625C8.41332 15 8.27024 14.9408 8.16475 14.8353C8.05926 14.7298 8 14.5867 8 14.4375V13.5716C8.00042 13.4386 7.97373 13.3069 7.92156 13.1845C7.86939 13.0622 7.79283 12.9518 7.69656 12.86C7.45344 12.6228 7.10031 12.4913 6.73125 12.5003C6.06375 12.516 5.5 13.1035 5.5 13.7835V14.4375C5.5 14.5867 5.44074 14.7298 5.33525 14.8353C5.22976 14.9408 5.08668 15 4.9375 15H2.73813C2.50987 15 2.28385 14.9551 2.07297 14.8677C1.86209 14.7804 1.67048 14.6523 1.50909 14.4909C1.18312 14.165 1 13.7229 1 13.2619V11.0625C1 10.9133 1.05926 10.7703 1.16475 10.6648C1.27024 10.5593 1.41332 10.5 1.5625 10.5H2.42844C2.71469 10.5 2.99313 10.3775 3.2125 10.1563C3.33455 10.0332 3.43106 9.8873 3.49649 9.72684C3.56192 9.56637 3.59498 9.39455 3.59375 9.22126C3.58437 8.55908 3.03938 8.00001 2.40344 8.00001H1.5625C1.41332 8.00001 1.27024 7.94075 1.16475 7.83526C1.05926 7.72977 1 7.5867 1 7.43751V5.23814C1 5.00988 1.04496 4.78386 1.13231 4.57299C1.21966 4.36211 1.34769 4.1705 1.50909 4.0091C1.83505 3.68314 2.27715 3.50001 2.73813 3.50001H4.46438C4.53068 3.50001 4.59427 3.47367 4.64115 3.42679C4.68804 3.3799 4.71438 3.31632 4.71438 3.25001V3.04751C4.71437 2.77556 4.76854 2.50634 4.87371 2.25555C4.97888 2.00477 5.13295 1.77744 5.32693 1.58684C5.5209 1.39623 5.7509 1.24618 6.00349 1.14542C6.25609 1.04467 6.52622 0.995238 6.79812 1.00001C7.90719 1.01939 8.80937 1.94939 8.80937 3.07282V3.25001C8.80937 3.31632 8.83571 3.3799 8.8826 3.42679C8.92948 3.47367 8.99307 3.50001 9.05937 3.50001H10.7856C11.0108 3.50001 11.2337 3.54436 11.4417 3.63051C11.6497 3.71667 11.8387 3.84295 11.9979 4.00214C12.1571 4.16133 12.2833 4.35033 12.3695 4.55832C12.4557 4.76632 12.5 4.98925 12.5 5.21439V6.94064C12.5 7.00694 12.5263 7.07053 12.5732 7.11741C12.6201 7.1643 12.6837 7.19064 12.75 7.19064H12.9269C14.07 7.19064 15 8.09689 15 9.21064C15 10.3547 14.0816 11.2856 12.9525 11.2856H12.75C12.6837 11.2856 12.6201 11.312 12.5732 11.3589C12.5263 11.4057 12.5 11.4693 12.5 11.5356V13.2856C12.5 13.5108 12.4557 13.7337 12.3695 13.9417C12.2833 14.1497 12.1571 14.3387 11.9979 14.4979C11.8387 14.6571 11.6497 14.7834 11.4417 14.8695C11.2337 14.9557 11.0108 15 10.7856 15Z" fill="#35363A"/>
</svg>
