<svg width="15" height="12" viewBox="0 0 15 12" fill="none" xmlns="http://www.w3.org/2000/svg">
<path d="M14.666 6.22851C14.666 6.54492 14.4309 6.80641 14.1258 6.8478L14.041 6.85351L3.05435 6.85301L7.02351 10.8059C7.26811 11.0495 7.26896 11.4452 7.02541 11.6898C6.804 11.9122 6.45682 11.9331 6.21176 11.7521L6.14153 11.6917L1.09986 6.67173C1.06762 6.63963 1.03961 6.60488 1.01585 6.56819C1.00913 6.55715 1.0023 6.54585 0.995819 6.53432C0.989861 6.52444 0.984476 6.51418 0.979396 6.50381C0.97234 6.48872 0.965446 6.47313 0.959188 6.45722C0.954102 6.44495 0.949855 6.43302 0.945982 6.421C0.941378 6.40609 0.936903 6.3902 0.933055 6.37406C0.930194 6.3628 0.927928 6.35196 0.925952 6.34108C0.923172 6.32488 0.920807 6.30813 0.919119 6.29117C0.917661 6.27824 0.916783 6.26543 0.916299 6.2526C0.916174 6.24483 0.916016 6.23668 0.916016 6.22851L0.916329 6.2043C0.916808 6.19203 0.917645 6.17977 0.918843 6.16755L0.916016 6.22851C0.916016 6.18907 0.919669 6.15048 0.926656 6.11306C0.928276 6.10413 0.930206 6.09495 0.932344 6.08582C0.936784 6.06701 0.941915 6.04889 0.947823 6.03112C0.950723 6.0223 0.954101 6.01287 0.95771 6.00351C0.965014 5.98471 0.972953 5.96678 0.981686 5.94932C0.985744 5.9411 0.990287 5.93251 0.995046 5.924C1.00286 5.91012 1.0109 5.89693 1.01941 5.88407C1.02541 5.87497 1.03206 5.86549 1.039 5.85617L1.04441 5.84897C1.06125 5.82697 1.07952 5.80612 1.09907 5.78656L1.09982 5.78598L6.14149 0.765152C6.38607 0.52158 6.7818 0.5224 7.02537 0.766982C7.2468 0.98933 7.26625 1.33659 7.0842 1.58089L7.02354 1.65086L3.05602 5.60301L14.041 5.60351C14.3862 5.60351 14.666 5.88333 14.666 6.22851Z" fill="black"/>
</svg>
