<svg width="12" height="12" viewBox="0 0 12 12" fill="none" xmlns="http://www.w3.org/2000/svg">
<path d="M10.25 0.5H5.25C4.78602 0.500496 4.34119 0.68503 4.01311 1.01311C3.68503 1.34119 3.5005 1.78602 3.5 2.25V5.5H8.29281L6.64656 3.85344C6.55675 3.75891 6.50742 3.63303 6.50909 3.50265C6.51076 3.37227 6.5633 3.2477 6.6555 3.1555C6.7477 3.0633 6.87227 3.01076 7.00265 3.00909C7.13303 3.00742 7.25891 3.05675 7.35344 3.14656L9.85344 5.64656C9.94713 5.74032 9.99977 5.86745 9.99977 6C9.99977 6.13255 9.94713 6.25968 9.85344 6.35344L7.35344 8.85344C7.25891 8.94325 7.13303 8.99258 7.00265 8.99091C6.87227 8.98924 6.7477 8.9367 6.6555 8.8445C6.5633 8.7523 6.51076 8.62773 6.50909 8.49735C6.50742 8.36697 6.55675 8.24109 6.64656 8.14656L8.29281 6.5H3.5V9.75C3.5 10.7516 4.55594 11.5 5.5 11.5H10.25C10.714 11.4995 11.1588 11.315 11.4869 10.9869C11.815 10.6588 11.9995 10.214 12 9.75V2.25C11.9995 1.78602 11.815 1.34119 11.4869 1.01311C11.1588 0.68503 10.714 0.500496 10.25 0.5ZM0.5 5.5C0.367392 5.5 0.240215 5.55268 0.146447 5.64645C0.0526785 5.74021 0 5.86739 0 6C0 6.13261 0.0526785 6.25979 0.146447 6.35355C0.240215 6.44732 0.367392 6.5 0.5 6.5H3.5V5.5H0.5Z" fill="#35363A"/>
</svg>
