<svg width="16" height="16" viewBox="0 0 16 16" fill="none" xmlns="http://www.w3.org/2000/svg">
<path fill-rule="evenodd" clip-rule="evenodd" d="M0.999512 9.99341C0.999512 9.71727 1.22337 9.49341 1.49951 9.49341H2.99951C3.27566 9.49341 3.49951 9.71727 3.49951 9.99341C3.49951 10.2696 3.27566 10.4934 2.99951 10.4934H1.49951C1.22337 10.4934 0.999512 10.2696 0.999512 9.99341ZM4.23182 11.7611C4.42708 11.9564 4.42708 12.2729 4.23182 12.4682L3.17119 13.5288C2.97593 13.7241 2.65935 13.7241 2.46408 13.5288C2.26882 13.3336 2.26882 13.017 2.46408 12.8217L3.52471 11.7611C3.71997 11.5658 4.03655 11.5658 4.23182 11.7611ZM5.99951 12.4934C6.27566 12.4934 6.49951 12.7173 6.49951 12.9934V14.4934C6.49951 14.7696 6.27566 14.9934 5.99951 14.9934C5.72337 14.9934 5.49951 14.7696 5.49951 14.4934V12.9934C5.49951 12.7173 5.72337 12.4934 5.99951 12.4934Z" fill="#35363A"/>
<path d="M8.36151 9.76005L7.38932 10.7322C7.34288 10.7787 7.30604 10.8338 7.2809 10.8945C7.25577 10.9551 7.24283 11.0202 7.24283 11.0858C7.24283 11.1515 7.25577 11.2165 7.2809 11.2772C7.30604 11.3379 7.34288 11.393 7.38932 11.4394L8.80369 12.8535C8.89745 12.9472 9.02458 12.9998 9.15713 12.9998C9.28968 12.9998 9.41681 12.9472 9.51057 12.8535L10.4831 11.8813C10.4947 11.8697 10.5039 11.8559 10.5102 11.8407C10.5165 11.8256 10.5197 11.8093 10.5197 11.7929C10.5197 11.7764 10.5165 11.7602 10.5102 11.745C10.5039 11.7298 10.4947 11.716 10.4831 11.7044L8.53838 9.76005C8.52677 9.74842 8.51299 9.7392 8.49781 9.73291C8.48264 9.72662 8.46637 9.72338 8.44994 9.72338C8.43352 9.72338 8.41725 9.72662 8.40208 9.73291C8.3869 9.7392 8.37312 9.74842 8.36151 9.76005ZM4.11901 5.51723L3.14682 6.48973C3.05312 6.58349 3.00049 6.71062 3.00049 6.84317C3.00049 6.97572 3.05312 7.10285 3.14682 7.19661L4.56088 8.61098C4.60731 8.65742 4.66244 8.69426 4.72311 8.7194C4.78378 8.74453 4.84881 8.75747 4.91448 8.75747C4.98015 8.75747 5.04517 8.74453 5.10584 8.7194C5.16651 8.69426 5.22164 8.65742 5.26807 8.61098L6.24026 7.63879C6.25188 7.62718 6.2611 7.6134 6.26739 7.59822C6.27368 7.58305 6.27692 7.56678 6.27692 7.55036C6.27692 7.53393 6.27368 7.51766 6.26739 7.50249C6.2611 7.48731 6.25188 7.47353 6.24026 7.46192L4.29588 5.51723C4.28427 5.50561 4.27049 5.49639 4.25531 5.4901C4.24014 5.48381 4.22387 5.48057 4.20744 5.48057C4.19102 5.48057 4.17475 5.48381 4.15958 5.4901C4.1444 5.49639 4.13062 5.50561 4.11901 5.51723ZM13.4018 2.60254C12.984 2.18426 12.4879 1.85239 11.9419 1.62591C11.3958 1.39943 10.8104 1.28277 10.2192 1.28259C9.62806 1.28242 9.04263 1.39874 8.49642 1.6249C7.9502 1.85106 7.45391 2.18263 7.03588 2.60066L5.00276 4.63348C4.99113 4.64509 4.98191 4.65887 4.97562 4.67405C4.96933 4.68922 4.9661 4.70549 4.9661 4.72192C4.9661 4.73834 4.96933 4.75461 4.97562 4.76978C4.98191 4.78496 4.99113 4.79874 5.00276 4.81035L6.94744 6.75473C6.95905 6.76635 6.97284 6.77557 6.98801 6.78186C7.00319 6.78815 7.01945 6.79139 7.03588 6.79139C7.05231 6.79139 7.06857 6.78815 7.08375 6.78186C7.09892 6.77557 7.11271 6.76635 7.12432 6.75473L9.15557 4.72192C9.29639 4.5811 9.46385 4.46974 9.64817 4.39432C9.83249 4.31891 10.03 4.28095 10.2291 4.28267C10.4283 4.28438 10.6251 4.32574 10.8081 4.40432C10.9911 4.4829 11.1566 4.59713 11.2949 4.74035C11.8668 5.3316 11.8409 6.27911 11.2593 6.86067L9.24557 8.87504C9.23395 8.88665 9.22473 8.90044 9.21844 8.91562C9.21215 8.93079 9.20891 8.94706 9.20891 8.96348C9.20891 8.97991 9.21215 8.99618 9.21844 9.01135C9.22473 9.02652 9.23395 9.04031 9.24557 9.05192L11.1899 10.9966C11.2016 11.0082 11.2153 11.0175 11.2305 11.0237C11.2457 11.03 11.262 11.0333 11.2784 11.0333C11.2948 11.0333 11.3111 11.03 11.3263 11.0237C11.3414 11.0175 11.3552 11.0082 11.3668 10.9966L13.3693 8.99411C15.1309 7.23348 15.1621 4.36504 13.4018 2.60254Z" fill="#35363A"/>
</svg>
