<svg width="16" height="16" viewBox="0 0 16 16" fill="none" xmlns="http://www.w3.org/2000/svg">
<path d="M14.9999 14H14.6249C14.5917 14 14.5599 13.9868 14.5365 13.9634C14.5131 13.9399 14.4999 13.9082 14.4999 13.875V8.54719C14.5002 8.5273 14.4957 8.50763 14.4869 8.48982C14.478 8.472 14.465 8.45655 14.449 8.44476C14.433 8.43296 14.4144 8.42516 14.3948 8.42199C14.3752 8.41883 14.355 8.42039 14.3361 8.42656C14.0494 8.51669 13.7516 8.56695 13.4511 8.57594C13.4143 8.57594 13.3793 8.5775 13.3449 8.5775C12.767 8.57886 12.1984 8.43211 11.6933 8.15125C11.6551 8.12999 11.6121 8.11883 11.5683 8.11883C11.5246 8.11883 11.4816 8.12999 11.4433 8.15125C10.9384 8.43211 10.3699 8.57886 9.79207 8.5775C9.21751 8.57831 8.65259 8.42981 8.1527 8.14656C8.11414 8.12473 8.07059 8.11326 8.02629 8.11326C7.98199 8.11326 7.93844 8.12473 7.89988 8.14656C7.39247 8.43088 6.82027 8.57942 6.23863 8.57781C5.66021 8.57819 5.09173 8.42737 4.58957 8.14031C4.55071 8.1182 4.50678 8.10658 4.46207 8.10658C4.41736 8.10658 4.37343 8.1182 4.33457 8.14031C3.83241 8.42737 3.26393 8.57819 2.68551 8.57781C2.65144 8.57781 2.61707 8.57781 2.58019 8.57625H2.57832C2.26732 8.56692 1.95923 8.51336 1.66332 8.41719C1.64458 8.41113 1.62468 8.40959 1.60523 8.41269C1.58578 8.41578 1.56734 8.42343 1.55141 8.43501C1.53547 8.44658 1.5225 8.46176 1.51355 8.4793C1.5046 8.49684 1.49991 8.51624 1.49988 8.53594V13.875C1.49988 13.9082 1.48671 13.9399 1.46327 13.9634C1.43983 13.9868 1.40803 14 1.37488 14H1.01551C0.745507 14 0.512382 14.2075 0.500507 14.4775C0.497467 14.545 0.508131 14.6124 0.531854 14.6756C0.555578 14.7389 0.591869 14.7966 0.638538 14.8455C0.685207 14.8943 0.741286 14.9332 0.80339 14.9597C0.865495 14.9863 0.932336 15 0.999882 15H14.9843C15.2543 15 15.4874 14.7925 15.4993 14.5225C15.5023 14.455 15.4916 14.3876 15.4679 14.3244C15.4442 14.2611 15.4079 14.2034 15.3612 14.1545C15.3146 14.1057 15.2585 14.0668 15.1964 14.0403C15.1343 14.0137 15.0674 14 14.9999 14ZM6.99988 11.875C6.99988 11.9082 6.98671 11.9399 6.96327 11.9634C6.93983 11.9868 6.90804 12 6.87488 12H4.12488C4.09173 12 4.05994 11.9868 4.03649 11.9634C4.01305 11.9399 3.99988 11.9082 3.99988 11.875V9.875C3.99988 9.77554 4.03939 9.68016 4.10972 9.60983C4.18004 9.53951 4.27543 9.5 4.37488 9.5H6.62488C6.72434 9.5 6.81972 9.53951 6.89005 9.60983C6.96037 9.68016 6.99988 9.77554 6.99988 9.875V11.875ZM11.8749 14H9.62488C9.59173 14 9.55994 13.9868 9.5365 13.9634C9.51305 13.9399 9.49988 13.9082 9.49988 13.875V9.875C9.49988 9.77554 9.53939 9.68016 9.60972 9.60983C9.68005 9.53951 9.77543 9.5 9.87489 9.5H11.6249C11.7243 9.5 11.8197 9.53951 11.8901 9.60983C11.9604 9.68016 11.9999 9.77554 11.9999 9.875V13.875C11.9999 13.9082 11.9867 13.9399 11.9633 13.9634C11.9398 13.9868 11.908 14 11.8749 14ZM15.3927 5.32125L14.0514 2.24344C13.7002 1.48813 12.898 1 12.0077 1H3.99051C3.10019 1 2.29801 1.48813 1.94676 2.24344L0.605507 5.32125C0.324256 5.92781 0.695819 6.55063 0.696132 6.55094L0.704882 6.565C0.720194 6.58938 0.747382 6.6275 0.763944 6.65188C0.765507 6.65375 0.766757 6.65594 0.768319 6.65812L0.924569 6.84719C0.930411 6.85432 0.936672 6.86111 0.943319 6.8675L1.09957 7.01844L1.11269 7.02969C1.20445 7.10834 1.30261 7.17921 1.40613 7.24156V7.24312C1.74623 7.44914 2.1337 7.56399 2.53113 7.57656H2.60832C3.20966 7.57768 3.78908 7.35089 4.22988 6.94187L4.2402 6.93219C4.28623 6.88881 4.3471 6.86465 4.41035 6.86465C4.47361 6.86465 4.53447 6.88881 4.58051 6.93219L4.59082 6.94187C5.03632 7.3502 5.61869 7.57671 6.22301 7.57671C6.82733 7.57671 7.4097 7.3502 7.8552 6.94187C7.90141 6.89909 7.96206 6.87532 8.02504 6.87532C8.08802 6.87532 8.14867 6.89909 8.19488 6.94187C8.63907 7.34891 9.2193 7.57529 9.82177 7.57662C10.4242 7.57795 11.0055 7.35413 11.4514 6.94906C11.497 6.90689 11.5567 6.88346 11.6188 6.88346C11.6808 6.88346 11.7406 6.90689 11.7861 6.94906C12.2326 7.3566 12.8164 7.58069 13.4208 7.57656H13.4986C13.8861 7.5621 14.2631 7.44685 14.5924 7.24219C14.6221 7.22437 14.6505 7.20563 14.6793 7.18687C14.9014 7.03715 15.0947 6.84861 15.2499 6.63031L15.3043 6.54812C15.3097 6.53979 15.3147 6.53104 15.3193 6.52187C15.3711 6.41625 15.6493 5.87313 15.3927 5.32125Z" fill="#35363A"/>
</svg>
