<svg width="116" height="20" viewBox="0 0 116 20" fill="none" xmlns="http://www.w3.org/2000/svg">
<path d="M19.6821 2.04443H11.293V17.0692H19.6821V2.04443Z" fill="#555557"/>
<path d="M11.8515 9.5567C11.8515 6.50412 13.291 3.79485 15.5 2.04433C13.8743 0.770103 11.8236 0 9.58667 0C4.28763 0 0 4.27423 0 9.5567C0 14.8392 4.28763 19.1134 9.58667 19.1134C11.8236 19.1134 13.8743 18.3433 15.5 17.0691C13.2879 15.3433 11.8515 12.6093 11.8515 9.5567Z" fill="#555557"/>
<path d="M31 9.5567C31 14.8392 26.7124 19.1134 21.4133 19.1134C19.1764 19.1134 17.1257 18.3433 15.5 17.0691C17.7369 15.3155 19.1485 12.6093 19.1485 9.5567C19.1485 6.50412 17.709 3.79485 15.5 2.04433C17.1226 0.770103 19.1733 0 21.4102 0C26.7124 0 31 4.30206 31 9.5567Z" fill="#FAA61A"/>
<path d="M47.6543 14.8543V10.4413C47.6543 8.75321 46.5891 7.64782 44.7607 7.64782C43.8464 7.64782 42.8523 7.93916 42.1689 8.89889C41.6363 8.0934 40.873 7.64782 39.7279 7.64782C38.9646 7.64782 38.2013 7.87061 37.5977 8.67609V7.79349H36V14.8543H37.5977V10.9554C37.5977 9.70437 38.2811 9.11311 39.3463 9.11311C40.4114 9.11311 40.944 9.77292 40.944 10.9554V14.8543H42.5417V10.9554C42.5417 9.70437 43.305 9.11311 44.2902 9.11311C45.3554 9.11311 45.8879 9.77292 45.8879 10.9554V14.8543H47.6543ZM71.3534 7.79349H68.7616V5.65981H67.1639V7.79349H65.7171V9.19023H67.1639V12.4293C67.1639 14.0488 67.8473 15 69.6758 15C70.3593 15 71.1226 14.7772 71.6552 14.4859L71.1936 13.1577C70.7321 13.449 70.1995 13.5261 69.8178 13.5261C69.0545 13.5261 68.7527 13.0805 68.7527 12.3522V9.19023H71.3445V7.79349H71.3534ZM84.916 7.63924C84.0018 7.63924 83.3893 8.08483 83.0077 8.66752V7.78492H81.41V14.8458H83.0077V10.8698C83.0077 9.6958 83.5402 9.02742 84.5343 9.02742C84.8361 9.02742 85.2178 9.10454 85.5285 9.17309L85.99 7.69923C85.6705 7.63925 85.2178 7.63924 84.916 7.63924ZM64.4212 8.37618C63.6578 7.86204 62.5927 7.63924 61.4477 7.63924C59.6192 7.63924 58.4032 8.52185 58.4032 9.9186C58.4032 11.0925 59.3174 11.7609 60.9151 11.9752L61.6785 12.0523C62.5128 12.1979 62.9744 12.4207 62.9744 12.7892C62.9744 13.3033 62.3619 13.6718 61.2968 13.6718C60.2317 13.6718 59.3884 13.3033 58.8559 12.9349L58.0925 14.1088C58.9269 14.7001 60.0719 14.9914 61.2169 14.9914C63.3472 14.9914 64.5721 14.0317 64.5721 12.7121C64.5721 11.461 63.5779 10.8012 62.0601 10.5784L61.2968 10.5013C60.6133 10.4242 60.0808 10.2785 60.0808 9.84147C60.0808 9.32733 60.6133 9.03599 61.4566 9.03599C62.3708 9.03599 63.285 9.40446 63.7466 9.62725L64.4212 8.37618ZM106.929 7.63924C106.014 7.63924 105.402 8.08483 105.02 8.66752V7.78492H103.423V14.8458H105.02V10.8698C105.02 9.6958 105.553 9.02742 106.547 9.02742C106.849 9.02742 107.23 9.10454 107.541 9.17309L108.003 7.71637C107.692 7.63925 107.239 7.63924 106.929 7.63924ZM86.5137 11.3239C86.5137 13.4576 88.0404 15 90.4014 15C91.4666 15 92.2299 14.7772 92.9932 14.1945L92.2299 12.9434C91.6174 13.389 91.0139 13.6033 90.3215 13.6033C89.0256 13.6033 88.1114 12.7206 88.1114 11.3239C88.1114 9.99571 89.0256 9.11311 90.3215 9.04456C91.005 9.04456 91.6174 9.26735 92.2299 9.70437L92.9932 8.4533C92.2299 7.86204 91.4666 7.64782 90.4014 7.64782C88.0404 7.63925 86.5137 9.19023 86.5137 11.3239ZM101.292 11.3239V7.79349H99.6947V8.67609C99.1621 8.01628 98.3988 7.64782 97.4046 7.64782C95.3454 7.64782 93.7477 9.19023 93.7477 11.3239C93.7477 13.4576 95.3454 15 97.4046 15C98.4698 15 99.2331 14.6315 99.6947 13.9717V14.8543H101.292V11.3239ZM95.4253 11.3239C95.4253 10.0728 96.2596 9.04456 97.6354 9.04456C98.9313 9.04456 99.8456 10.0043 99.8456 11.3239C99.8456 12.575 98.9313 13.6033 97.6354 13.6033C96.2685 13.5261 95.4253 12.5664 95.4253 11.3239ZM76.3062 7.63924C74.176 7.63924 72.6493 9.11311 72.6493 11.3153C72.6493 13.5261 74.176 14.9914 76.3861 14.9914C77.4512 14.9914 78.5164 14.7001 79.3596 14.0317L78.5963 12.9263C77.9838 13.3719 77.2205 13.6632 76.466 13.6632C75.4719 13.6632 74.4866 13.2177 74.2559 11.9752H79.6614C79.6614 11.7524 79.6614 11.6067 79.6614 11.3839C79.7324 9.11311 78.3566 7.63924 76.3062 7.63924ZM76.3062 8.96744C77.3003 8.96744 77.9838 9.5587 78.1347 10.6555H74.3269C74.4778 9.70437 75.1612 8.96744 76.3062 8.96744ZM116 11.3239V5H114.402V8.67609C113.87 8.01628 113.106 7.64782 112.112 7.64782C110.053 7.64782 108.455 9.19023 108.455 11.3239C108.455 13.4576 110.053 15 112.112 15C113.177 15 113.941 14.6315 114.402 13.9717V14.8543H116V11.3239ZM110.133 11.3239C110.133 10.0728 110.967 9.04456 112.343 9.04456C113.639 9.04456 114.553 10.0043 114.553 11.3239C114.553 12.575 113.639 13.6033 112.343 13.6033C110.967 13.5261 110.133 12.5664 110.133 11.3239ZM56.6457 11.3239V7.79349H55.048V8.67609C54.5155 8.01628 53.7521 7.64782 52.758 7.64782C50.6988 7.64782 49.1011 9.19023 49.1011 11.3239C49.1011 13.4576 50.6988 15 52.758 15C53.8231 15 54.5865 14.6315 55.048 13.9717V14.8543H56.6457V11.3239ZM50.7076 11.3239C50.7076 10.0728 51.542 9.04456 52.9178 9.04456C54.2137 9.04456 55.1279 10.0043 55.1279 11.3239C55.1279 12.575 54.2137 13.6033 52.9178 13.6033C51.542 13.5261 50.7076 12.5664 50.7076 11.3239Z" fill="#555557"/>
</svg>
