<svg width="72" height="19" viewBox="0 0 72 19" fill="none" xmlns="http://www.w3.org/2000/svg">
<path d="M26.8316 3.88574H22.8605C22.5888 3.88574 22.3577 4.0815 22.3153 4.3475L20.7092 14.4446C20.6773 14.6438 20.8329 14.8234 21.0367 14.8234H22.9325C23.2043 14.8234 23.4354 14.6277 23.4778 14.3611L23.9109 11.6377C23.9527 11.3712 24.1844 11.1754 24.4556 11.1754H25.7127C28.3285 11.1754 29.8381 9.92026 30.2324 7.43298C30.4101 6.3448 30.24 5.4898 29.7261 4.89101C29.1617 4.2335 28.1607 3.88574 26.8316 3.88574ZM27.2897 7.57347C27.0725 8.98638 25.9838 8.98638 24.9311 8.98638H24.3319L24.7523 6.34768C24.7772 6.1882 24.9166 6.07074 25.0792 6.07074H25.3538C26.0709 6.07074 26.7474 6.07074 27.0969 6.47608C27.3054 6.71789 27.3692 7.07717 27.2897 7.57347Z" fill="#555557"/>
<path d="M38.7032 7.52792H36.8015C36.6395 7.52792 36.4996 7.64537 36.4746 7.80486L36.3905 8.33225L36.2575 8.1411C35.8458 7.54865 34.9278 7.35059 34.0115 7.35059C31.9102 7.35059 30.1154 8.92874 29.7659 11.1425C29.5841 12.2468 29.8425 13.3028 30.4743 14.0392C31.0537 14.7163 31.8829 14.9984 32.8694 14.9984C34.5626 14.9984 35.5015 13.9188 35.5015 13.9188L35.4167 14.4428C35.3848 14.6431 35.5404 14.8228 35.743 14.8228H37.4559C37.7283 14.8228 37.9582 14.627 38.0012 14.3604L39.0289 7.90677C39.0614 7.70813 38.9064 7.52792 38.7032 7.52792ZM36.0525 11.1978C35.869 12.275 35.0068 12.9982 33.907 12.9982C33.3548 12.9982 32.9135 12.8226 32.6302 12.4898C32.3492 12.1593 32.2423 11.6889 32.3317 11.165C32.503 10.0969 33.3798 9.35019 34.4627 9.35019C35.0027 9.35019 35.4417 9.5281 35.7308 9.86377C36.0206 10.2029 36.1355 10.6762 36.0525 11.1978Z" fill="#555557"/>
<path d="M48.8305 7.52783H46.9196C46.7373 7.52783 46.566 7.61765 46.4627 7.76792L43.8271 11.6174L42.71 7.9182C42.6397 7.68674 42.4243 7.52783 42.1804 7.52783H40.3026C40.0744 7.52783 39.9159 7.74892 39.9885 7.96195L42.0933 14.0869L40.1145 16.8568C39.9589 17.075 40.1156 17.375 40.3845 17.375H42.2931C42.4742 17.375 42.6438 17.2875 42.7465 17.1401L49.1023 8.04314C49.2544 7.8255 49.0982 7.52783 48.8305 7.52783Z" fill="#555557"/>
<path d="M55.1558 3.88574H51.1842C50.913 3.88574 50.6819 4.0815 50.6395 4.3475L49.0335 14.4446C49.0015 14.6438 49.1571 14.8234 49.3598 14.8234H51.3979C51.5871 14.8234 51.7491 14.6864 51.7788 14.4998L52.2346 11.6377C52.2764 11.3712 52.5081 11.1754 52.7792 11.1754H54.0357C56.6521 11.1754 58.1612 9.92026 58.5561 7.43298C58.7343 6.3448 58.563 5.4898 58.0491 4.89101C57.4853 4.2335 56.4849 3.88574 55.1558 3.88574ZM55.6139 7.57347C55.3973 8.98638 54.3086 8.98638 53.2553 8.98638H52.6567L53.0777 6.34768C53.1026 6.1882 53.2408 6.07074 53.404 6.07074H53.6786C54.3951 6.07074 55.0722 6.07074 55.4217 6.47608C55.6302 6.71789 55.6935 7.07717 55.6139 7.57347Z" fill="#555557"/>
<path d="M67.0268 7.52792H65.1264C64.9632 7.52792 64.8245 7.64537 64.8001 7.80486L64.7159 8.33225L64.5823 8.1411C64.1707 7.54865 63.2532 7.35059 62.337 7.35059C60.2356 7.35059 58.4414 8.92874 58.0919 11.1425C57.9107 12.2468 58.1679 13.3028 58.7997 14.0392C59.3803 14.7163 60.2083 14.9984 61.1948 14.9984C62.888 14.9984 63.8269 13.9188 63.8269 13.9188L63.7421 14.4428C63.7102 14.6431 63.8658 14.8228 64.0696 14.8228H65.7819C66.0531 14.8228 66.2842 14.627 66.3266 14.3604L67.3549 7.90677C67.3863 7.70813 67.2307 7.52792 67.0268 7.52792ZM64.3762 11.1978C64.1939 12.275 63.3305 12.9982 62.2307 12.9982C61.6797 12.9982 61.2372 12.8226 60.9539 12.4898C60.6728 12.1593 60.5672 11.6889 60.6554 11.165C60.8279 10.0969 61.7035 9.35019 62.7864 9.35019C63.3264 9.35019 63.7654 9.5281 64.0545 9.86377C64.3454 10.2029 64.4604 10.6762 64.3762 11.1978Z" fill="#555557"/>
<path d="M69.2688 4.16277L67.6389 14.4446C67.607 14.6439 67.7626 14.8235 67.9653 14.8235H69.6038C69.8762 14.8235 70.1073 14.6277 70.1491 14.3612L71.7563 4.26468C71.7882 4.06547 71.6326 3.88525 71.43 3.88525H69.5951C69.4331 3.88583 69.2938 4.00328 69.2688 4.16277Z" fill="#555557"/>
<path d="M4.21814 16.7854L4.52182 14.8727L3.84536 14.8572H0.615234L2.86001 0.743658C2.86698 0.701052 2.88962 0.661325 2.92272 0.633113C2.95582 0.604901 2.9982 0.589355 3.04233 0.589355H8.48878C10.2969 0.589355 11.5447 0.962446 12.1962 1.69884C12.5016 2.04429 12.6961 2.40529 12.7902 2.80257C12.8889 3.21942 12.8907 3.71745 12.7943 4.32487L12.7873 4.3692V4.75842L13.0927 4.92999C13.3499 5.06529 13.5543 5.22017 13.7111 5.39751C13.9724 5.69287 14.1414 6.06826 14.2128 6.51332C14.2865 6.97105 14.2621 7.51572 14.1414 8.13236C14.002 8.84169 13.7767 9.45948 13.4725 9.96499C13.1926 10.4308 12.8361 10.8171 12.4128 11.1165C12.0087 11.4009 11.5285 11.6168 10.9856 11.755C10.4595 11.8909 9.85969 11.9594 9.20182 11.9594H8.77794C8.47485 11.9594 8.18046 12.0677 7.94936 12.2617C7.71769 12.4597 7.5644 12.7304 7.51736 13.0263L7.48543 13.1984L6.94891 16.5695L6.92453 16.6933C6.91814 16.7324 6.90711 16.752 6.89085 16.7653C6.87633 16.7774 6.85543 16.7854 6.83511 16.7854H4.21814Z" fill="#253B80"/>
<path d="M13.3832 4.41455C13.367 4.51761 13.3484 4.62298 13.3275 4.73122C12.6092 8.38785 10.1519 9.65107 7.01356 9.65107H5.41562C5.03181 9.65107 4.7084 9.92743 4.64859 10.3028L3.83046 15.4478L3.59878 16.9062C3.55988 17.1526 3.75149 17.3749 4.00233 17.3749H6.83646C7.17207 17.3749 7.45717 17.133 7.51001 16.8049L7.53788 16.6621L8.07149 13.3042L8.10575 13.12C8.15801 12.7907 8.44369 12.5489 8.7793 12.5489H9.20317C11.949 12.5489 14.0986 11.4434 14.7268 8.24449C14.9893 6.90816 14.8534 5.79234 14.159 5.00758C13.9488 4.77094 13.6881 4.57461 13.3832 4.41455Z" fill="#FAA61A"/>
<path d="M12.6317 4.11745C12.522 4.08579 12.4088 4.057 12.2926 4.03109C12.1759 4.00576 12.0563 3.9833 11.9332 3.96373C11.5024 3.89463 11.0303 3.86182 10.5246 3.86182H6.25566C6.15057 3.86182 6.0507 3.88542 5.96128 3.92803C5.76444 4.02188 5.61812 4.2067 5.5827 4.43297L4.67457 10.1364L4.64844 10.3028C4.70824 9.92742 5.03166 9.65106 5.41547 9.65106H7.01341C10.1518 9.65106 12.6091 8.38727 13.3273 4.73121C13.3488 4.62297 13.3668 4.5176 13.3831 4.41454C13.2013 4.31897 13.0045 4.23721 12.7926 4.16754C12.7403 4.15027 12.6863 4.13357 12.6317 4.11745Z" fill="#555557"/>
<path d="M5.58232 4.43276C5.61774 4.20648 5.76406 4.02167 5.9609 3.92839C6.0509 3.88579 6.15019 3.86218 6.25528 3.86218H10.5242C11.0299 3.86218 11.502 3.895 11.9328 3.96409C12.0559 3.98367 12.1755 4.00612 12.2923 4.03145C12.4084 4.05736 12.5216 4.08615 12.6313 4.11782C12.6859 4.13394 12.7399 4.15064 12.7928 4.16733C13.0047 4.237 13.2015 4.31933 13.3833 4.41433C13.597 3.06303 13.3815 2.14297 12.6447 1.30985C11.8324 0.392667 10.3663 0 8.49019 0H3.04374C2.66051 0 2.33361 0.276364 2.27438 0.652333L0.00579996 14.911C-0.0389097 15.1931 0.180574 15.4476 0.467413 15.4476H3.82993L4.67419 10.1362L5.58232 4.43276Z" fill="#555557"/>
</svg>
