<svg width="20" height="20" viewBox="0 0 20 20" fill="none" xmlns="http://www.w3.org/2000/svg">
<path d="M1.91999 19.0787C1.78125 19.0784 1.64408 19.0493 1.5172 18.9932C1.39031 18.9371 1.2765 18.8552 1.18299 18.7527C1.08779 18.651 1.01514 18.5304 0.969818 18.3988C0.924493 18.2671 0.907513 18.1274 0.91999 17.9887L1.16499 15.2947L12.483 3.98066L16.02 7.51666L4.70499 18.8297L2.01099 19.0747C1.98074 19.0775 1.95037 19.0788 1.91999 19.0787ZM16.726 6.80966L13.19 3.27366L15.311 1.15266C15.4039 1.05969 15.5142 0.985926 15.6355 0.935602C15.7569 0.885278 15.8871 0.859375 16.0185 0.859375C16.1499 0.859375 16.28 0.885278 16.4014 0.935602C16.5228 0.985926 16.6331 1.05969 16.726 1.15266L18.847 3.27366C18.94 3.36653 19.0137 3.47682 19.0641 3.59822C19.1144 3.71962 19.1403 3.84975 19.1403 3.98116C19.1403 4.11258 19.1144 4.2427 19.0641 4.3641C19.0137 4.4855 18.94 4.59579 18.847 4.68866L16.727 6.80866L16.726 6.80966Z" fill="#131313"/>
</svg>
