<svg width="14" height="14" viewBox="0 0 14 14" fill="none" xmlns="http://www.w3.org/2000/svg">
<path d="M13.2078 4.29375C13.1151 4.2004 13.0048 4.12637 12.8833 4.07595C12.7618 4.02553 12.6315 3.99971 12.5 4H10.5V3.5C10.5 2.57174 10.1313 1.6815 9.47487 1.02513C8.8185 0.368749 7.92826 0 7 0C6.07174 0 5.1815 0.368749 4.52513 1.02513C3.86875 1.6815 3.5 2.57174 3.5 3.5V4H1.5C1.23478 4 0.98043 4.10536 0.792893 4.29289C0.605357 4.48043 0.5 4.73478 0.5 5V11.75C0.5 12.9688 1.53125 14 2.75 14H11.25C11.8395 14.0002 12.4057 13.7697 12.8275 13.3578C13.0398 13.1553 13.2088 12.9119 13.3244 12.6423C13.4399 12.3727 13.4997 12.0824 13.5 11.7891V5C13.5004 4.86881 13.4748 4.73884 13.4246 4.61761C13.3745 4.49638 13.3008 4.38631 13.2078 4.29375ZM4.5 3.5C4.5 2.83696 4.76339 2.20107 5.23223 1.73223C5.70107 1.26339 6.33696 1 7 1C7.66304 1 8.29893 1.26339 8.76777 1.73223C9.23661 2.20107 9.5 2.83696 9.5 3.5V4H4.5V3.5ZM10.5 6.5C10.5 7.42826 10.1313 8.3185 9.47487 8.97487C8.8185 9.63125 7.92826 10 7 10C6.07174 10 5.1815 9.63125 4.52513 8.97487C3.86875 8.3185 3.5 7.42826 3.5 6.5V6C3.5 5.86739 3.55268 5.74021 3.64645 5.64645C3.74021 5.55268 3.86739 5.5 4 5.5C4.13261 5.5 4.25979 5.55268 4.35355 5.64645C4.44732 5.74021 4.5 5.86739 4.5 6V6.5C4.5 7.16304 4.76339 7.79893 5.23223 8.26777C5.70107 8.73661 6.33696 9 7 9C7.66304 9 8.29893 8.73661 8.76777 8.26777C9.23661 7.79893 9.5 7.16304 9.5 6.5V6C9.5 5.86739 9.55268 5.74021 9.64645 5.64645C9.74021 5.55268 9.86739 5.5 10 5.5C10.1326 5.5 10.2598 5.55268 10.3536 5.64645C10.4473 5.74021 10.5 5.86739 10.5 6V6.5Z" fill="#35363A"/>
</svg>
