<svg width="27" height="36" viewBox="0 0 27 36" fill="none" xmlns="http://www.w3.org/2000/svg">
<path d="M23.0856 3.21459e-06H3.9095C2.87264 3.21459e-06 1.87824 0.433472 1.14507 1.20505C0.411895 1.97663 2.09488e-06 3.02312 2.09488e-06 4.1143V31.1684C-0.000726966 31.6772 0.188866 32.1658 0.527785 32.5287L3.22778 35.4344C3.39331 35.6134 3.59125 35.7557 3.8099 35.8528C4.02855 35.9499 4.26348 36 4.50082 36C4.73815 36 4.97309 35.9499 5.19174 35.8528C5.41039 35.7557 5.60832 35.6134 5.77385 35.4344L7.7286 33.3309C7.89413 33.152 8.09206 33.0097 8.31071 32.9125C8.52936 32.8154 8.76429 32.7653 9.00163 32.7653C9.23897 32.7653 9.4739 32.8154 9.69255 32.9125C9.9112 33.0097 10.1091 33.152 10.2747 33.3309L12.2294 35.4344C12.3953 35.6131 12.5935 35.7552 12.8124 35.8522C13.0312 35.9491 13.2662 35.9991 13.5037 35.9991C13.7411 35.9991 13.9762 35.9491 14.195 35.8522C14.4138 35.7552 14.612 35.6131 14.7779 35.4344L16.7327 33.3309C16.8982 33.152 17.0961 33.0097 17.3148 32.9125C17.5334 32.8154 17.7684 32.7653 18.0057 32.7653C18.243 32.7653 18.478 32.8154 18.6966 32.9125C18.9153 33.0097 19.1132 33.152 19.2787 33.3309L21.2335 35.4344C21.399 35.6134 21.5969 35.7557 21.8156 35.8528C22.0342 35.9499 22.2692 36 22.5065 36C22.7439 36 22.9788 35.9499 23.1974 35.8528C23.4161 35.7557 23.614 35.6134 23.7795 35.4344L26.4673 32.5364C26.8091 32.1688 27.0004 31.6749 27 31.1607V5.33316V5.3023V4.1143C27 3.57357 26.8987 3.03814 26.7019 2.53864C26.5052 2.03913 26.2168 1.58535 25.8532 1.20323C25.4897 0.821118 25.0581 0.518168 24.5832 0.311708C24.1083 0.105248 23.5994 -0.000672698 23.0856 3.21459e-06ZM6.90027 9.00003H17.0772C17.5542 9.00003 18.0116 9.19942 18.3488 9.55435C18.6861 9.90928 18.8756 10.3907 18.8756 10.8926C18.8756 11.3945 18.6861 11.8759 18.3488 12.2309C18.0116 12.5858 17.5542 12.7852 17.0772 12.7852H6.90027C6.42332 12.7852 5.96589 12.5858 5.62863 12.2309C5.29137 11.8759 5.1019 11.3945 5.1019 10.8926C5.1019 10.3907 5.29137 9.90928 5.62863 9.55435C5.96589 9.19942 6.42332 9.00003 6.90027 9.00003ZM6.90027 15.912H12.1024C12.3385 15.912 12.5724 15.961 12.7906 16.0561C13.0088 16.1512 13.207 16.2906 13.374 16.4664C13.541 16.6421 13.6735 16.8507 13.7638 17.0804C13.8542 17.31 13.9007 17.5561 13.9007 17.8046C13.9007 18.0532 13.8542 18.2993 13.7638 18.5289C13.6735 18.7585 13.541 18.9671 13.374 19.1429C13.207 19.3186 13.0088 19.458 12.7906 19.5531C12.5724 19.6482 12.3385 19.6972 12.1024 19.6972H6.90027C6.42332 19.6972 5.96589 19.4978 5.62863 19.1429C5.29137 18.7879 5.1019 18.3066 5.1019 17.8046C5.1019 17.3027 5.29137 16.8213 5.62863 16.4664C5.96589 16.1114 6.42332 15.912 6.90027 15.912Z" fill="#35363A"/>
</svg>
