<svg width="16" height="16" viewBox="0 0 16 16" fill="none" xmlns="http://www.w3.org/2000/svg">
<path d="M15.7824 13.8331L12.6666 10.7178C12.5259 10.5772 12.3353 10.4991 12.1353 10.4991H11.6259C12.4884 9.39608 13.001 8.00871 13.001 6.49949C13.001 2.90921 10.0914 0.00012207 6.50048 0.00012207C2.90959 0.00012207 0 2.90921 0 6.49949C0 10.0898 2.90959 12.9989 6.50048 12.9989C8.00996 12.9989 9.39756 12.4864 10.5008 11.624V12.1333C10.5008 12.3333 10.5789 12.5239 10.7195 12.6645L13.8354 15.7798C14.1292 16.0736 14.6042 16.0736 14.8948 15.7798L15.7793 14.8955C16.0731 14.6018 16.0731 14.1269 15.7824 13.8331ZM6.50048 10.4991C4.29094 10.4991 2.50018 8.71177 2.50018 6.49949C2.50018 4.29033 4.28781 2.49988 6.50048 2.49988C8.71001 2.49988 10.5008 4.2872 10.5008 6.49949C10.5008 8.70865 8.71314 10.4991 6.50048 10.4991Z" fill="#35363A"/>
</svg>
