<svg width="60" height="71" viewBox="0 0 60 71" fill="none" xmlns="http://www.w3.org/2000/svg">
<path fill-rule="evenodd" clip-rule="evenodd" d="M30.1978 0.462402C34.1034 0.462402 54.5965 7.49797 57.3094 10.2108C59.5707 12.4722 59.5362 14.2991 59.3776 23.0548C59.3156 26.564 59.2294 31.3451 59.2294 37.9636C59.2294 61.6866 32.1006 70.1734 30.9458 70.5216C30.7011 70.5974 30.4494 70.6319 30.1978 70.6319C29.9462 70.6319 29.6945 70.5974 29.4498 70.5216C28.295 70.1734 1.1662 61.6866 1.1662 37.9636C1.1662 31.3554 1.08002 26.5743 1.01797 23.0651C0.989654 21.4998 0.965296 20.1557 0.95728 18.9909L0.956299 17.6765C0.985869 13.3585 1.39112 11.9068 3.08969 10.2108C5.79567 7.49797 26.2888 0.462402 30.1978 0.462402ZM30.1978 5.63308C27.2746 5.63308 8.83258 12.1274 6.70571 13.9027C6.07833 14.5335 6.0542 15.6297 6.18864 22.9686C6.25069 26.5054 6.33687 31.3106 6.33687 37.9636C6.33687 55.892 26.0613 63.8514 30.1944 65.3164C34.324 63.8445 54.0587 55.8403 54.0587 37.9636C54.0587 31.3037 54.1449 26.495 54.2104 22.9583C54.3414 15.6263 54.3173 14.5301 53.652 13.8682C51.5665 12.1274 33.121 5.63308 30.1978 5.63308ZM43.0262 25.7625C44.0362 26.7725 44.0362 28.4099 43.0262 29.4199L29.5894 42.8602C29.2033 43.249 28.7047 43.5011 28.1695 43.5864L27.7624 43.6186C27.0764 43.6186 26.418 43.3462 25.932 42.8602L19.4101 36.3314C18.4035 35.3214 18.4035 33.6805 19.4135 32.674C20.4201 31.664 22.0609 31.664 23.0709 32.674L27.7624 37.3724L39.3723 25.7625C40.3823 24.7525 42.0162 24.7525 43.0262 25.7625Z" fill="black"/>
</svg>
