<svg width="58" height="24" viewBox="0 0 58 24" fill="none" xmlns="http://www.w3.org/2000/svg">
<path fill-rule="evenodd" clip-rule="evenodd" d="M57.9999 12.4007C57.9999 8.29928 56.0021 5.06299 52.1838 5.06299C48.3493 5.06299 46.0293 8.29928 46.0293 12.3687C46.0293 17.1911 48.7682 19.6263 52.6993 19.6263C54.6166 19.6263 56.0666 19.1937 57.1621 18.5849V15.3807C56.0666 15.9254 54.8099 16.2618 53.2149 16.2618C51.6521 16.2618 50.2665 15.7171 50.0893 13.8266H57.9677C57.9677 13.6183 57.9999 12.7852 57.9999 12.4007ZM50.041 10.8787C50.041 9.0683 51.1527 8.3153 52.1677 8.3153C53.1505 8.3153 54.1977 9.0683 54.1977 10.8787H50.041Z" fill="#555557"/>
<path fill-rule="evenodd" clip-rule="evenodd" d="M39.8101 5.06299C38.2312 5.06299 37.2162 5.79997 36.6523 6.31265L36.4429 5.31933H32.8984V24.0001L36.9262 23.151L36.9423 18.617C37.5224 19.0335 38.3762 19.6263 39.794 19.6263C42.6779 19.6263 45.3041 17.3192 45.3041 12.2405C45.288 7.59435 42.6296 5.06299 39.8101 5.06299ZM38.8435 16.1016C37.8929 16.1016 37.329 15.7652 36.9423 15.3486L36.9262 9.40475C37.3451 8.94013 37.9251 8.61971 38.8435 8.61971C40.3096 8.61971 41.3246 10.2539 41.3246 12.3527C41.3246 14.4995 40.3257 16.1016 38.8435 16.1016Z" fill="#555557"/>
<path fill-rule="evenodd" clip-rule="evenodd" d="M27.3574 4.11746L31.4013 3.25231V0L27.3574 0.849126V4.11746Z" fill="#555557"/>
<path d="M31.4013 5.33545H27.3574V19.354H31.4013V5.33545Z" fill="#555557"/>
<path fill-rule="evenodd" clip-rule="evenodd" d="M23.023 6.5211L22.7652 5.33553H19.2852V19.3541H23.313V9.85352C24.2635 8.61988 25.8746 8.84418 26.3741 9.02041V5.33553C25.8585 5.14327 23.9735 4.7908 23.023 6.5211Z" fill="#555557"/>
<path fill-rule="evenodd" clip-rule="evenodd" d="M14.9687 1.85889L11.0376 2.69199L11.0215 15.525C11.0215 17.8962 12.8098 19.6425 15.1943 19.6425C16.5154 19.6425 17.4821 19.4022 18.0138 19.1138V15.8615C17.4982 16.0697 14.9526 16.8067 14.9526 14.4356V8.74802H18.0138V5.3355H14.9526L14.9687 1.85889Z" fill="#555557"/>
<path fill-rule="evenodd" clip-rule="evenodd" d="M4.07614 9.40475C4.07614 8.77992 4.5917 8.5396 5.44559 8.5396C6.67004 8.5396 8.21672 8.90809 9.44117 9.56496V5.79997C8.10394 5.27126 6.78282 5.06299 5.44559 5.06299C2.17501 5.06299 0 6.76124 0 9.597C0 14.0189 6.12226 13.3139 6.12226 15.2205C6.12226 15.9574 5.47781 16.1978 4.57559 16.1978C3.23835 16.1978 1.53057 15.653 0.177223 14.9161V18.7291C1.67557 19.37 3.19002 19.6423 4.57559 19.6423C7.92672 19.6423 10.2306 17.9921 10.2306 15.1243C10.2145 10.35 4.07614 11.1991 4.07614 9.40475Z" fill="#555557"/>
</svg>
