<svg width="16" height="16" viewBox="0 0 16 16" fill="none" xmlns="http://www.w3.org/2000/svg">
<path d="M15.3181 5.66875L13.939 4.28969C13.8277 4.17992 13.6794 4.11583 13.5232 4.11004C13.367 4.10426 13.2143 4.1572 13.0952 4.25844C12.9114 4.41492 12.6755 4.49662 12.4342 4.48736C12.193 4.4781 11.964 4.37855 11.7927 4.20844C11.6227 4.03715 11.5232 3.80825 11.514 3.56709C11.5047 3.32592 11.5864 3.09007 11.7427 2.90625C11.844 2.78717 11.8969 2.63449 11.8911 2.4783C11.8854 2.32211 11.8213 2.17376 11.7115 2.0625L10.3312 0.681874C10.2145 0.565449 10.0565 0.500061 9.89165 0.500061C9.72685 0.500061 9.56877 0.565449 9.45212 0.681874L7.25369 2.88C7.11796 3.01622 7.0156 3.182 6.95462 3.36437C6.94275 3.39944 6.92296 3.43129 6.89678 3.45747C6.87061 3.48365 6.83875 3.50344 6.80369 3.51531C6.62124 3.57628 6.45543 3.67876 6.31931 3.81469L0.681813 9.45218C0.565388 9.56883 0.5 9.72691 0.5 9.89172C0.5 10.0565 0.565388 10.2146 0.681813 10.3312L2.06244 11.7103C2.1737 11.8201 2.32205 11.8842 2.47824 11.8899C2.63442 11.8957 2.78711 11.8428 2.90619 11.7416C3.08959 11.5838 3.32583 11.5012 3.56757 11.5103C3.80931 11.5194 4.03868 11.6194 4.20974 11.7905C4.3808 11.9616 4.48089 12.1909 4.48997 12.4327C4.49904 12.6744 4.41643 12.9107 4.25869 13.0941C4.15745 13.2131 4.10451 13.3658 4.1103 13.522C4.11608 13.6782 4.18017 13.8265 4.28994 13.9378L5.669 15.3169C5.78565 15.4333 5.94372 15.4987 6.10853 15.4987C6.27334 15.4987 6.43141 15.4333 6.54806 15.3169L12.1856 9.67937C12.3214 9.54331 12.4239 9.37762 12.4849 9.19531C12.4968 9.16013 12.5166 9.12817 12.5428 9.10193C12.569 9.07569 12.601 9.05588 12.6362 9.04406C12.8185 8.98307 12.9841 8.88071 13.1202 8.745L15.3184 6.54656C15.4344 6.42992 15.4995 6.27209 15.4994 6.10759C15.4993 5.94309 15.4341 5.7853 15.3181 5.66875ZM8.1815 4.74219C8.13507 4.78863 8.07994 4.82547 8.01927 4.8506C7.9586 4.87574 7.89357 4.88867 7.8279 4.88867C7.76223 4.88867 7.69721 4.87574 7.63654 4.8506C7.57587 4.82547 7.52074 4.78863 7.47431 4.74219L7.11462 4.3825C7.02314 4.28826 6.97241 4.1618 6.9734 4.03046C6.97439 3.89913 7.02701 3.77345 7.11991 3.6806C7.2128 3.58774 7.3385 3.53517 7.46984 3.53424C7.60118 3.53331 7.72761 3.5841 7.82181 3.67562L8.1815 4.035C8.22794 4.08143 8.26478 4.13655 8.28991 4.19722C8.31505 4.25789 8.32799 4.32292 8.32799 4.38859C8.32799 4.45426 8.31505 4.51929 8.28991 4.57996C8.26478 4.64063 8.22794 4.69575 8.1815 4.74219ZM9.5565 6.11719C9.46274 6.21088 9.33561 6.26352 9.20306 6.26352C9.07051 6.26352 8.94338 6.21088 8.84962 6.11719L8.50587 5.77344C8.45944 5.727 8.42261 5.67188 8.39747 5.61121C8.37234 5.55054 8.35941 5.48551 8.35941 5.41984C8.35941 5.35417 8.37234 5.28915 8.39747 5.22848C8.42261 5.16781 8.45944 5.11268 8.50587 5.06625C8.59965 4.97247 8.72684 4.91978 8.85947 4.91978C8.92514 4.91978 8.99016 4.93272 9.05083 4.95785C9.1115 4.98298 9.16663 5.01981 9.21306 5.06625L9.55681 5.41C9.60341 5.45643 9.6404 5.51159 9.66564 5.57234C9.69088 5.63308 9.70389 5.69821 9.70392 5.764C9.70395 5.82978 9.691 5.89492 9.66581 5.95569C9.64062 6.01645 9.60368 6.07165 9.55712 6.11812L9.5565 6.11719ZM10.9315 7.49219C10.8851 7.53863 10.8299 7.57547 10.7693 7.6006C10.7086 7.62573 10.6436 7.63867 10.5779 7.63867C10.5122 7.63867 10.4472 7.62573 10.3865 7.6006C10.3259 7.57547 10.2707 7.53863 10.2243 7.49219L9.88056 7.14844C9.78907 7.05419 9.73835 6.92774 9.73933 6.7964C9.74032 6.66506 9.79295 6.53939 9.88584 6.44653C9.97874 6.35368 10.1044 6.30111 10.2358 6.30018C10.3671 6.29925 10.4935 6.35003 10.5877 6.44156L10.9315 6.78531C10.9782 6.83166 11.0153 6.88678 11.0407 6.94751C11.0661 7.00824 11.0792 7.07338 11.0794 7.1392C11.0795 7.20502 11.0667 7.27022 11.0416 7.33107C11.0165 7.39191 10.9796 7.44719 10.9331 7.49375L10.9315 7.49219ZM12.3199 8.88406C12.2735 8.9305 12.2184 8.96734 12.1577 8.99248C12.097 9.01761 12.032 9.03055 11.9663 9.03055C11.9007 9.03055 11.8356 9.01761 11.775 8.99248C11.7143 8.96734 11.6592 8.9305 11.6127 8.88406L11.2552 8.52468C11.2078 8.47839 11.1701 8.42313 11.1442 8.36213C11.1183 8.30112 11.1049 8.23558 11.1045 8.16931C11.1042 8.10304 11.1171 8.03737 11.1424 7.97612C11.1677 7.91487 11.2049 7.85925 11.2518 7.81251C11.2988 7.76576 11.3546 7.72882 11.416 7.70383C11.4774 7.67885 11.5431 7.66631 11.6094 7.66694C11.6756 7.66758 11.7411 7.68139 11.802 7.70755C11.8629 7.73372 11.9179 7.77173 11.964 7.81937L12.3218 8.17843C12.3682 8.22489 12.405 8.28003 12.4302 8.34071C12.4553 8.40139 12.4682 8.46642 12.4681 8.53209C12.4681 8.59776 12.4551 8.66278 12.43 8.72344C12.4048 8.7841 12.368 8.83921 12.3215 8.88562L12.3199 8.88406Z" fill="#35363A"/>
</svg>
