<svg width="44" height="30" viewBox="0 0 44 30" fill="none" xmlns="http://www.w3.org/2000/svg">
<path d="M0 25.605V23.4493C0.0412229 22.6639 0.303033 21.9044 0.757123 21.2529C1.21121 20.6014 1.8403 20.0827 2.57638 19.7529C9.65078 16.9971 11.9492 16.9971 19.0236 19.7529C19.7597 20.0827 20.3888 20.6014 20.8429 21.2529C21.297 21.9044 21.5588 22.6639 21.6 23.4493V25.605C21.5997 26.1828 21.482 26.7549 21.2536 27.2885C21.0252 27.8222 20.6906 28.307 20.2689 28.7151C19.8472 29.1233 19.3467 29.4469 18.796 29.6673C18.2452 29.8878 17.6551 30.0008 17.0593 30H4.5407C3.94491 30.0008 3.35478 29.8878 2.80406 29.6673C2.25334 29.4469 1.75283 29.1233 1.33112 28.7151C0.909423 28.307 0.574806 27.8222 0.346403 27.2885C0.118 26.7549 0.000289712 26.1828 0 25.605ZM13.6 3.13428e-07C12.1053 -0.00042353 10.6441 0.429029 9.40108 1.23405C8.15809 2.03906 7.18917 3.18348 6.61687 4.52256C6.04458 5.86165 5.89462 7.33524 6.18595 8.75699C6.47728 10.1787 7.19682 11.4848 8.25356 12.5099C9.31031 13.535 10.6568 14.2332 12.1227 14.5162C13.5887 14.7991 15.1082 14.6541 16.4892 14.0995C17.8701 13.5449 19.0504 12.6056 19.8809 11.4003C20.7113 10.1951 21.1546 8.77812 21.1546 7.32857C21.1549 6.36627 20.9597 5.41334 20.5802 4.52421C20.2006 3.63508 19.6442 2.82717 18.9427 2.14662C18.2412 1.46607 17.4082 0.926218 16.4915 0.557896C15.5748 0.189575 14.5923 2.72267e-07 13.6 3.13428e-07Z" fill="#35363A"/>
<path d="M23.1992 26.5304V24.8285C23.2307 24.2085 23.4309 23.6089 23.7782 23.0946C24.1254 22.5802 24.6065 22.1707 25.1694 21.9103C30.5792 19.7346 36.6192 19.7346 42.0291 21.9103C42.5919 22.1707 43.073 22.5802 43.4203 23.0946C43.7675 23.6089 43.9677 24.2085 43.9992 24.8285V26.5304C43.999 26.9865 43.909 27.4382 43.7343 27.8595C43.5597 28.2808 43.3038 28.6635 42.9813 28.9858C42.6588 29.308 42.2761 29.5634 41.855 29.7375C41.4338 29.9115 40.9825 30.0008 40.5269 30.0001H26.6715C26.2159 30.0008 25.7646 29.9115 25.3435 29.7375C24.9224 29.5634 24.5396 29.308 24.2171 28.9858C23.8947 28.6635 23.6388 28.2808 23.4641 27.8595C23.2895 27.4382 23.1994 26.9865 23.1992 26.5304ZM33.5992 6.31592C32.4562 6.31558 31.3388 6.65463 30.3883 7.29016C29.4378 7.9257 28.6968 8.82919 28.2592 9.88636C27.8215 10.9435 27.7069 12.1069 27.9296 13.2293C28.1524 14.3518 28.7027 15.3828 29.5108 16.1921C30.3189 17.0015 31.3485 17.5527 32.4695 17.776C33.5906 17.9994 34.7525 17.885 35.8086 17.4471C36.8646 17.0092 37.7672 16.2677 38.4023 15.3162C39.0373 14.3647 39.3763 13.246 39.3763 12.1016C39.3765 11.3419 39.2272 10.5896 38.937 9.88766C38.6468 9.18572 38.2213 8.54789 37.6848 8.01062C37.1483 7.47334 36.5114 7.04714 35.8104 6.75636C35.1094 6.46558 34.358 6.31592 33.5992 6.31592Z" fill="#35363A"/>
</svg>
