<svg width="27" height="32" viewBox="0 0 27 32" fill="none" xmlns="http://www.w3.org/2000/svg">
<path d="M21.3749 31.9999L18.9686 30.8422C18.0075 30.3768 17.1954 29.6449 16.6259 28.7309C16.0565 27.817 15.7528 26.7582 15.75 25.6766V18.2858H26.9999V25.6777C26.9971 26.7593 26.6934 27.8181 26.124 28.7321C25.5545 29.646 24.7424 30.3779 23.7813 30.8433L21.3749 31.9999ZM18 20.5715V25.6777C18.002 26.3264 18.1844 26.9613 18.5261 27.5092C18.8679 28.0572 19.3551 28.4959 19.9316 28.7748L21.3749 29.4696L22.8183 28.7759C23.395 28.497 23.8823 28.0581 24.2241 27.5099C24.5658 26.9617 24.7481 26.3266 24.7499 25.6777V20.5715H18Z" fill="#FBBC15"/>
<path d="M13.4999 29.7143H2.24998V2.28619H11.2499V9.14322C11.2517 9.74886 11.4893 10.3292 11.9109 10.7574C12.3324 11.1857 12.9037 11.4271 13.4999 11.4289H20.2498V14.8574H22.4998V9.14322C22.5037 8.99302 22.4756 8.84373 22.4174 8.70563C22.3591 8.56753 22.2721 8.44389 22.1623 8.34323L14.2874 0.343362C14.1883 0.231758 14.0666 0.143309 13.9307 0.0841174C13.7947 0.024926 13.6477 -0.00359881 13.4999 0.000510681H2.24998C1.65379 0.00231948 1.08254 0.243712 0.66097 0.671968C0.239403 1.10022 0.00178055 1.68054 0 2.28619V29.7143C0.00178055 30.3199 0.239403 30.9003 0.66097 31.3285C1.08254 31.7568 1.65379 31.9982 2.24998 32H13.4999V29.7143ZM13.4999 2.74332L19.7998 9.14322H13.4999V2.74332Z" fill="#FBBC15"/>
</svg>
