<svg width="39" height="34" viewBox="0 0 39 34" fill="none" xmlns="http://www.w3.org/2000/svg">
<path fill-rule="evenodd" clip-rule="evenodd" d="M2.60001 2.61541C7.86848 2.63965 11.5408 3.3059 14.0108 4.493C16.3505 5.61743 17.6288 7.2128 18.2 9.32259V29.6192C15.2438 27.4233 10.7005 26.1564 2.62433 26.1539C2.61325 26.125 2.60001 26.0742 2.60001 25.9961V2.61541ZM19.4997 34C19.4998 34 19.4999 34 19.5 34C19.9148 34 20.2842 33.8046 20.5223 33.5003C22.6396 30.8431 26.1654 28.7692 36.4 28.7692C37.0896 28.7692 37.7509 28.4937 38.2385 28.0032C38.7261 27.5127 39 26.8475 39 26.1538V2.61718C39.0009 2.27377 38.9344 1.93356 38.8043 1.61604C38.6739 1.29755 38.4821 1.00817 38.2399 0.764592C37.9978 0.521012 37.7101 0.328053 37.3935 0.196832C37.0768 0.0656103 36.7375 -0.00128046 36.3951 1.85634e-05L36.3942 2.24606e-05C30.9757 0.0244643 26.8498 0.700185 23.8683 2.13313C21.9291 3.06514 20.4868 4.31295 19.5 5.86075C18.5132 4.31295 17.0709 3.06514 15.1317 2.13313C12.1502 0.700185 8.02431 0.0244643 2.60584 2.20709e-05L2.60491 1.85634e-05C2.26247 -0.00128046 1.92316 0.0656099 1.60654 0.196832C1.28991 0.328054 1.00224 0.521014 0.760094 0.764592C0.51795 1.00817 0.326124 1.29755 0.195674 1.61604C0.0655867 1.93365 -0.000901615 2.27395 9.23323e-06 2.61744V25.9961C9.23323e-06 26.662 0.205052 27.3429 0.659153 27.8794C1.12965 28.4353 1.81585 28.7692 2.60001 28.7692C12.8338 28.7692 16.3744 30.8582 18.4774 33.4998C18.4995 33.5282 18.5228 33.5555 18.5472 33.5819C18.7842 33.8387 19.1225 33.9995 19.4982 34M20.8 9.32259V29.6173C23.7617 27.4136 28.3032 26.1538 36.4 26.1538V2.61539C31.1315 2.63964 27.4592 3.3059 24.9892 4.493C22.6495 5.61743 21.3712 7.2128 20.8 9.32259Z" fill="#FBBC15"/>
</svg>
