<svg width="25" height="29" viewBox="0 0 25 29" fill="none" xmlns="http://www.w3.org/2000/svg">
<path d="M12.9959 17.2222V19.9383C11.8197 19.5225 10.5608 19.3949 9.32509 19.5664C8.08934 19.7378 6.91278 20.2033 5.8942 20.9237C4.87563 21.6441 4.04477 22.5983 3.47142 23.7064C2.89806 24.8144 2.59894 26.0438 2.59918 27.2914L3.35888e-07 27.2901C-0.000403021 25.7032 0.362483 24.1372 1.06085 22.7122C1.75923 21.2871 2.77454 20.0409 4.02901 19.0689C5.28348 18.097 6.7438 17.4251 8.29809 17.1048C9.85237 16.7844 11.4594 16.8241 12.9959 17.2209V17.2222ZM10.3967 15.5951C6.08858 15.5951 2.59918 12.1057 2.59918 7.79754C2.59918 3.4894 6.08858 0 10.3967 0C14.7049 0 18.1943 3.4894 18.1943 7.79754C18.1943 12.1057 14.7049 15.5951 10.3967 15.5951ZM10.3967 12.9959C13.2688 12.9959 15.5951 10.6696 15.5951 7.79754C15.5951 4.92545 13.2688 2.59918 10.3967 2.59918C7.52463 2.59918 5.19836 4.92545 5.19836 7.79754C5.19836 10.6696 7.52463 12.9959 10.3967 12.9959ZM17.9253 24.5805L22.5193 19.9864L24.3582 21.824L17.9253 28.257L13.3299 23.6616L15.1688 21.824L17.924 24.5805H17.9253Z" fill="#FBBC15"/>
</svg>
