<svg width="28" height="32" viewBox="0 0 28 32" fill="none" xmlns="http://www.w3.org/2000/svg">
<path d="M27.9522 7.84033C27.9264 7.57147 27.8349 7.31375 27.6862 7.09131C27.5376 6.86887 27.3366 6.68897 27.1022 6.56846L14.6933 0.169128C14.4778 0.0579068 14.2402 0 13.9992 0C13.7583 0 13.5206 0.0579068 13.3051 0.169128L0.896262 6.56846C0.662469 6.68966 0.462127 6.86977 0.313808 7.09211C0.16549 7.31444 0.0739953 7.5718 0.0478075 7.84033C0.0307454 8.01151 -1.4428 25.0657 13.3703 31.8602C13.5682 31.9524 13.7828 32 14 32C14.2172 32 14.4318 31.9524 14.6297 31.8602C29.4428 25.0657 27.9693 8.01311 27.9522 7.84033ZM14 28.6334C3.50057 23.3987 3.00421 12.2271 3.08952 9.01621L14 3.38959L24.9027 9.01301C24.9601 12.1951 24.394 23.4403 14 28.6334Z" fill="#FBBC15"/>
<path d="M12.4489 16.937L8.89221 13.2686L6.69895 15.5307L12.4489 21.4613L21.3011 12.3311L19.1078 10.0689L12.4489 16.937Z" fill="#FBBC15"/>
</svg>
