<svg width="36" height="36" viewBox="0 0 36 36" fill="none" xmlns="http://www.w3.org/2000/svg">
<path fill-rule="evenodd" clip-rule="evenodd" d="M21.4852 0.436678C21.7649 0.157071 22.1443 0 22.5398 0C22.9353 0 23.3146 0.157071 23.5944 0.436678L26.9006 3.74666C26.9016 3.74764 26.9025 3.74861 26.9035 3.74959C27.1688 4.01396 27.3248 4.36854 27.3404 4.74279C27.3561 5.11843 27.2293 5.48613 26.9853 5.77218L26.9842 5.77343L26.9831 5.77468C26.6054 6.21505 26.4079 6.78177 26.43 7.36151C26.4521 7.94091 26.692 8.49063 27.1018 8.90085C27.5126 9.30974 28.0625 9.54864 28.6418 9.56983C29.2216 9.59104 29.7879 9.39264 30.2277 9.01429L30.2296 9.01262L30.2316 9.01096C30.5176 8.76698 30.8853 8.64012 31.261 8.65583C31.6354 8.67149 31.9902 8.82767 32.2546 9.09319C32.2554 9.09402 32.2563 9.09485 32.2571 9.09567L35.5633 12.4019C35.8429 12.6816 36 13.0609 36 13.4565C36 13.852 35.8429 14.2313 35.5633 14.5111L30.2877 19.7867L30.2876 19.7868C29.9615 20.1129 29.564 20.3586 29.1266 20.5046C29.0421 20.5329 28.9654 20.5805 28.9025 20.6437C28.8395 20.7069 28.792 20.7839 28.764 20.8687L27.6248 20.4915L28.7633 20.8709C28.6174 21.3086 28.3718 21.7064 28.0459 22.033L14.5148 35.5633C14.2351 35.8429 13.8558 36 13.4602 36C13.0647 36 12.6854 35.8429 12.4056 35.5633L9.09942 32.2571C9.0986 32.2563 9.09777 32.2554 9.09694 32.2546C8.83142 31.9902 8.67524 31.6354 8.65958 31.261C8.64387 30.8853 8.77072 30.5176 9.01471 30.2316L9.01602 30.23L9.01735 30.2285C9.39542 29.7883 9.59327 29.2215 9.57128 28.6416C9.54929 28.0617 9.30909 27.5116 8.89876 27.1012C8.48843 26.6909 7.93826 26.4507 7.35839 26.4287C6.77852 26.4067 6.21174 26.6046 5.77151 26.9826L5.76997 26.984L5.76843 26.9853C5.48238 27.2293 5.11468 27.3561 4.73904 27.3404C4.36492 27.3248 4.01046 27.1689 3.74612 26.9038C3.74505 26.9027 3.74398 26.9016 3.74291 26.9006L0.436678 23.5944C0.157071 23.3146 0 22.9353 0 22.5398C0 22.1443 0.157071 21.7649 0.436678 21.4852L13.967 7.95785C14.2932 7.63231 14.6904 7.38693 15.1275 7.24101M26.4859 20.1134C26.6312 19.675 26.8766 19.2765 27.2026 18.9494C27.5288 18.6221 27.9269 18.3753 28.3651 18.2286L28.7461 19.3666L28.3668 18.228C28.4511 18.1999 28.5276 18.1526 28.5904 18.0898L28.5905 18.0897L33.2238 13.4565L31.0971 11.3298C30.3321 11.7765 29.4509 12.0011 28.5541 11.9682C27.3701 11.9249 26.2461 11.4363 25.4068 10.6L26.2538 9.74996L25.4051 10.5983C24.5674 9.76037 24.0769 8.63704 24.0317 7.45302C23.9975 6.55543 24.2211 5.67311 24.6673 4.90692L22.5394 2.77659L17.9064 7.40958C17.8437 7.4723 17.7964 7.54875 17.7683 7.63289C17.623 8.07091 17.3778 8.46912 17.052 8.79602C16.7257 9.12335 16.3277 9.37017 15.8894 9.51688L15.5085 8.37895L15.8878 9.51741C15.803 9.54567 15.7259 9.59324 15.6626 9.65636L15.6624 9.65655L2.7763 22.5398L4.90328 24.6668C5.66935 24.2203 6.55166 23.9964 7.44934 24.0304C8.63383 24.0753 9.75766 24.566 10.5958 25.4042C11.434 26.2423 11.9246 27.3662 11.9696 28.5507C12.0036 29.4483 11.7797 30.3307 11.3332 31.0967L13.4602 33.2238L26.3472 20.3375C26.4101 20.2745 26.4576 20.1978 26.4859 20.1134ZM15.3973 7.63289L15.4905 6.87679C15.4625 6.96153 15.4151 7.03857 15.3521 7.10179C15.2891 7.16499 15.2122 7.21268 15.1275 7.24101M15.3973 7.63289L15.4912 6.87473C15.6371 6.43676 15.883 6.03879 16.2095 5.71241L21.4852 0.436678" fill="#9B8EEB"/>
<path d="M21.6001 0.300002L13.6501 8.32504L15.3001 8.81255L22.3501 1.68751L21.6001 0.300002Z" fill="#9B8EEB"/>
<path fill-rule="evenodd" clip-rule="evenodd" d="M17.1977 7.24616L18.4359 8.48442L16.7389 10.1815L15.5006 8.94323L17.1977 7.24616ZM20.9113 10.9605L21.7371 11.7856L20.0408 13.4834L19.215 12.6584L20.9113 10.9605ZM24.2144 14.2628L25.0394 15.0886L23.3415 16.7849L22.5165 15.9591L24.2144 14.2628ZM25.8184 17.564C26.2871 17.0953 27.0469 17.0953 27.5155 17.564L28.7537 18.8022C29.2224 19.2709 29.2224 20.0307 28.7537 20.4993C28.2851 20.9679 27.5253 20.9679 27.0567 20.4993L25.8184 19.261C25.3498 18.7924 25.3498 18.0326 25.8184 17.564Z" fill="#9B8EEB"/>
</svg>
