<svg width="27" height="31" viewBox="0 0 27 31" fill="none" xmlns="http://www.w3.org/2000/svg">
<path d="M8.38086 10.3334H16.7604V12.2122H8.38086V10.3334Z" fill="#FBBC15"/>
<path d="M8.38086 14.0909H16.7604V15.9697H8.38086V14.0909Z" fill="#FBBC15"/>
<path d="M8.38086 17.8484H16.7604V19.7272H8.38086V17.8484Z" fill="#FBBC15"/>
<path d="M8.38086 21.6061H16.7604V23.4849H8.38086V21.6061Z" fill="#FBBC15"/>
<path d="M4.65625 6.57581H6.51836V8.45459H4.65625V6.57581Z" fill="#FBBC15"/>
<path d="M4.65625 10.3334H6.51836V12.2122H4.65625V10.3334Z" fill="#FBBC15"/>
<path d="M4.65625 14.0909H6.51836V15.9697H4.65625V14.0909Z" fill="#FBBC15"/>
<path d="M4.65625 17.8484H6.51836V19.7272H4.65625V17.8484Z" fill="#FBBC15"/>
<path d="M4.65625 21.6061H6.51836V23.4849H4.65625V21.6061Z" fill="#FBBC15"/>
<path d="M8.38086 6.57581V8.45459H16.4438C16.0774 7.87292 15.7982 7.23982 15.6152 6.57581H8.38086Z" fill="#FBBC15"/>
<path d="M20.4832 11.4794V29.1212H1.86211V2.81818H15.6231C15.8032 2.15469 16.0793 1.52162 16.4424 0.939392H1.86211C1.36825 0.939392 0.894613 1.13734 0.5454 1.48968C0.196186 1.84202 0 2.31989 0 2.81818V29.1212C0 29.6195 0.196186 30.0974 0.5454 30.4497C0.894613 30.8021 1.36825 31 1.86211 31H20.4832C20.9771 31 21.4507 30.8021 21.7999 30.4497C22.1491 30.0974 22.3453 29.6195 22.3453 29.1212V11.7424C21.7157 11.74 21.0893 11.6515 20.4832 11.4794Z" fill="#FBBC15"/>
<path d="M22.3447 9.39394C24.9158 9.39394 27 7.29103 27 4.69697C27 2.1029 24.9158 0 22.3447 0C19.7737 0 17.6895 2.1029 17.6895 4.69697C17.6895 7.29103 19.7737 9.39394 22.3447 9.39394Z" fill="#FBBC15"/>
</svg>
