<svg width="36" height="34" viewBox="0 0 36 34" fill="none" xmlns="http://www.w3.org/2000/svg">
<path fill-rule="evenodd" clip-rule="evenodd" d="M5.14286 2.57143C3.7227 2.57143 2.57143 3.7227 2.57143 5.14286V28.2857C2.57143 29.7059 3.7227 30.8571 5.14286 30.8571H30.8571C32.2773 30.8571 33.4286 29.7059 33.4286 28.2857V5.14286C33.4286 3.7227 32.2773 2.57143 30.8571 2.57143H5.14286ZM0 5.14286C0 2.30254 2.30254 0 5.14286 0H30.8571C33.6975 0 36 2.30254 36 5.14286V28.2857C36 31.126 33.6975 33.4286 30.8571 33.4286H5.14286C2.30254 33.4286 0 31.126 0 28.2857V5.14286Z" fill="#FBBC15"/>
<path d="M29.3962 1.28571H6.60375C3.67152 1.28571 1.28571 3.70848 1.28571 6.68571V10.2857H2.57143C2.57143 9 3.85714 7.71429 5.14286 7.71429H30.8571C32.1429 7.71429 33.4286 9 33.4286 10.2857H34.7143V6.68571C34.7143 3.70848 32.3285 1.28571 29.3962 1.28571Z" fill="#FBBC15"/>
</svg>
