<svg width="27" height="28" viewBox="0 0 27 28" fill="none" xmlns="http://www.w3.org/2000/svg">
<path d="M11.2 0L21.4172 3.192C21.7022 3.28096 21.9512 3.45867 22.128 3.6992C22.3048 3.93973 22.4001 4.23048 22.4 4.529V7H25.2C25.5713 7 25.9274 7.1475 26.19 7.41005C26.4525 7.6726 26.6 8.0287 26.6 8.4V19.6C26.6 19.9713 26.4525 20.3274 26.19 20.59C25.9274 20.8525 25.5713 21 25.2 21L20.692 21.0014C20.1502 21.7154 19.4922 22.3454 18.732 22.8634L11.2 28L3.668 22.8648C2.53753 22.094 1.61245 21.0588 0.973196 19.8491C0.333939 18.6394 -0.000141712 17.2918 4.50938e-08 15.9236V4.529C0.000168849 4.23072 0.0956013 3.94029 0.272387 3.70004C0.449173 3.45979 0.69807 3.28229 0.9828 3.1934L11.2 0ZM11.2 2.9316L2.8 5.558V15.9236C2.7998 16.7807 2.99635 17.6264 3.37451 18.3956C3.75267 19.1648 4.30235 19.8369 4.9812 20.3602L5.2458 20.5506L11.2 24.612L16.4948 21H9.8C9.4287 21 9.0726 20.8525 8.81005 20.59C8.5475 20.3274 8.4 19.9713 8.4 19.6V8.4C8.4 8.0287 8.5475 7.6726 8.81005 7.41005C9.0726 7.1475 9.4287 7 9.8 7H19.6V5.558L11.2 2.9316ZM11.2 14V18.2H23.8V14H11.2ZM11.2 11.2H23.8V9.8H11.2V11.2Z" fill="#FBBC15"/>
</svg>
