<svg width="28" height="28" viewBox="0 0 28 28" fill="none" xmlns="http://www.w3.org/2000/svg">
<path d="M24 20C23.2937 20.0035 22.602 20.2006 22 20.57L18.91 17.47C19.629 16.4558 20.0152 15.2432 20.0152 14C20.0152 12.7568 19.629 11.5442 18.91 10.53L22 7.43C22.602 7.79939 23.2937 7.99655 24 8C24.7911 8 25.5645 7.7654 26.2223 7.32588C26.8801 6.88635 27.3928 6.26164 27.6955 5.53074C27.9983 4.79983 28.0775 3.99556 27.9231 3.21964C27.7688 2.44372 27.3878 1.73098 26.8284 1.17157C26.269 0.612164 25.5563 0.231202 24.7804 0.0768607C24.0044 -0.0774802 23.2002 0.00173312 22.4693 0.304484C21.7384 0.607234 21.1136 1.11992 20.6741 1.77772C20.2346 2.43552 20 3.20888 20 4C20.0035 4.70626 20.2006 5.39804 20.57 6L17.47 9.09C16.4558 8.371 15.2432 7.9848 14 7.9848C12.7568 7.9848 11.5442 8.371 10.53 9.09L7.43 6C7.79939 5.39804 7.99655 4.70626 8 4C8 3.20888 7.7654 2.43552 7.32588 1.77772C6.88635 1.11992 6.26164 0.607234 5.53074 0.304484C4.79983 0.00173312 3.99556 -0.0774802 3.21964 0.0768607C2.44372 0.231202 1.73098 0.612164 1.17157 1.17157C0.612164 1.73098 0.231202 2.44372 0.0768607 3.21964C-0.0774802 3.99556 0.00173312 4.79983 0.304484 5.53074C0.607234 6.26164 1.11992 6.88635 1.77772 7.32588C2.43552 7.7654 3.20888 8 4 8C4.70626 7.99655 5.39804 7.79939 6 7.43L9.09 10.53C8.371 11.5442 7.9848 12.7568 7.9848 14C7.9848 15.2432 8.371 16.4558 9.09 17.47L6 20.57C5.39804 20.2006 4.70626 20.0035 4 20C3.20888 20 2.43552 20.2346 1.77772 20.6741C1.11992 21.1136 0.607234 21.7384 0.304484 22.4693C0.00173312 23.2002 -0.0774802 24.0044 0.0768607 24.7804C0.231202 25.5563 0.612164 26.269 1.17157 26.8284C1.73098 27.3878 2.44372 27.7688 3.21964 27.9231C3.99556 28.0775 4.79983 27.9983 5.53074 27.6955C6.26164 27.3928 6.88635 26.8801 7.32588 26.2223C7.7654 25.5645 8 24.7911 8 24C7.99655 23.2937 7.79939 22.602 7.43 22L10.53 18.91C11.5442 19.629 12.7568 20.0152 14 20.0152C15.2432 20.0152 16.4558 19.629 17.47 18.91L20.57 22C20.2006 22.602 20.0035 23.2937 20 24C20 24.7911 20.2346 25.5645 20.6741 26.2223C21.1136 26.8801 21.7384 27.3928 22.4693 27.6955C23.2002 27.9983 24.0044 28.0775 24.7804 27.9231C25.5563 27.7688 26.269 27.3878 26.8284 26.8284C27.3878 26.269 27.7688 25.5563 27.9231 24.7804C28.0775 24.0044 27.9983 23.2002 27.6955 22.4693C27.3928 21.7384 26.8801 21.1136 26.2223 20.6741C25.5645 20.2346 24.7911 20 24 20ZM14 18C13.2089 18 12.4355 17.7654 11.7777 17.3259C11.1199 16.8864 10.6072 16.2616 10.3045 15.5307C10.0017 14.7998 9.92252 13.9956 10.0769 13.2196C10.2312 12.4437 10.6122 11.731 11.1716 11.1716C11.731 10.6122 12.4437 10.2312 13.2196 10.0769C13.9956 9.92252 14.7998 10.0017 15.5307 10.3045C16.2616 10.6072 16.8864 11.1199 17.3259 11.7777C17.7654 12.4355 18 13.2089 18 14C18 15.0609 17.5786 16.0783 16.8284 16.8284C16.0783 17.5786 15.0609 18 14 18Z" fill="#FBBC15"/>
</svg>
