<svg width="36" height="35" viewBox="0 0 36 35" fill="none" xmlns="http://www.w3.org/2000/svg">
<path fill-rule="evenodd" clip-rule="evenodd" d="M4.37708 19.0375C4.61511 18.9185 4.87758 18.8565 5.14371 18.8565H34.2856C35.0806 18.8565 35.7713 19.4032 35.954 20.1769C36.1355 20.9457 35.7681 21.7382 35.066 22.0971L35.0636 22.0984C35.0557 22.1026 35.0368 22.113 35.0086 22.1297C34.9519 22.1631 34.8586 22.221 34.7408 22.3044C34.5032 22.4727 34.178 22.7364 33.8526 23.1024C33.2146 23.8202 32.5714 24.9297 32.5714 26.5706C32.5714 28.2114 33.2146 29.3209 33.8526 30.0387C34.178 30.4048 34.5032 30.6685 34.7408 30.8367C34.8586 30.9202 34.9519 30.978 35.0086 31.0115C35.0368 31.0281 35.0557 31.0385 35.0636 31.0428C35.0645 31.0433 35.0653 31.0437 35.0659 31.044C35.7681 31.4029 36.1355 32.1954 35.954 32.9642C35.7713 33.738 35.0806 34.2846 34.2856 34.2846H5.14371C4.87758 34.2846 4.61511 34.2226 4.37708 34.1036L5.14371 32.5704C4.37708 34.1036 4.37632 34.1032 4.37554 34.1029L4.37044 34.1003L4.3625 34.0963L4.34281 34.0861C4.32803 34.0784 4.30993 34.0689 4.28874 34.0574C4.2464 34.0344 4.19158 34.0038 4.12609 33.9652C3.99531 33.8881 3.82075 33.7786 3.61715 33.6344C3.21183 33.3473 2.67995 32.9146 2.14825 32.3164C1.07203 31.1057 0.0010178 29.2153 0.0010178 26.5706C0.0010178 23.9259 1.07203 22.0355 2.14825 20.8247C2.67995 20.2265 3.21183 19.7938 3.61715 19.5067C3.82075 19.3625 3.99531 19.253 4.12609 19.1759C4.19158 19.1373 4.2464 19.1067 4.28874 19.0838C4.30993 19.0723 4.32803 19.0627 4.34281 19.055L4.3625 19.0449L4.37044 19.0408L4.37392 19.0391L4.37554 19.0383C4.37632 19.0379 4.37708 19.0375 5.14371 20.5708L4.37708 19.0375ZM5.62651 22.285C5.61745 22.2913 5.60824 22.2978 5.59886 22.3044C5.36135 22.4727 5.03612 22.7364 4.71071 23.1024C4.0727 23.8202 3.42948 24.9297 3.42948 26.5706C3.42948 28.2114 4.0727 29.3209 4.71071 30.0387C5.03612 30.4048 5.36135 30.6685 5.59886 30.8367C5.60824 30.8433 5.61746 30.8498 5.62651 30.8561H30.2436C29.6132 29.7443 29.1429 28.3231 29.1429 26.5706C29.1429 24.8181 29.6132 23.3968 30.2436 22.285H5.62651ZM35.0668 22.0966C35.0681 22.0959 35.0685 22.0957 35.0668 22.0966V22.0966Z" fill="#FBBC15"/>
<path fill-rule="evenodd" clip-rule="evenodd" d="M31.6229 15.2471C31.3849 15.3661 31.1224 15.4281 30.8563 15.4281L1.7144 15.4281C0.919376 15.4281 0.228682 14.8814 0.0460244 14.1077C-0.135453 13.3389 0.231884 12.5464 0.934037 12.1875L0.93644 12.1862C0.944317 12.182 0.963157 12.1716 0.991413 12.1549C1.04813 12.1215 1.14141 12.0636 1.25924 11.9802C1.49675 11.8119 1.82198 11.5482 2.14739 11.1821C2.7854 10.4644 3.42863 9.3549 3.42863 7.71403C3.42863 6.07316 2.78541 4.96367 2.1474 4.24591C1.82198 3.87982 1.49675 3.61613 1.25924 3.44789C1.14141 3.36443 1.04813 3.30655 0.991414 3.27313C0.963157 3.25648 0.944318 3.2461 0.936441 3.24183C0.935496 3.24132 0.934712 3.2409 0.93409 3.24057C0.231904 2.88168 -0.135459 2.08916 0.0460255 1.32038C0.228684 0.546626 0.919377 -6.95029e-08 1.7144 0L30.8563 2.54767e-06C31.1224 2.57093e-06 31.3849 0.0619638 31.6229 0.180978L30.8563 1.71423C31.6229 0.180978 31.6237 0.18136 31.6245 0.181748L31.6296 0.184317L31.6375 0.188347L31.6572 0.198487C31.672 0.206179 31.6901 0.215748 31.7113 0.227222C31.7536 0.250161 31.8084 0.280795 31.8739 0.319387C32.0047 0.396452 32.1793 0.505977 32.3828 0.650189C32.7882 0.937291 33.3201 1.37001 33.8518 1.96817C34.928 3.17892 35.999 5.06933 35.999 7.71403C35.999 10.3587 34.928 12.2491 33.8518 13.4599C33.3201 14.0581 32.7882 14.4908 32.3828 14.7779C32.1793 14.9221 32.0047 15.0316 31.8739 15.1087C31.8084 15.1473 31.7536 15.1779 31.7113 15.2008C31.6901 15.2123 31.672 15.2219 31.6572 15.2296L31.6375 15.2397L31.6296 15.2437L31.6261 15.2455L31.6245 15.2463C31.6237 15.2467 31.6229 15.2471 30.8563 13.7138L31.6229 15.2471ZM30.3735 11.9996C30.3825 11.9933 30.3918 11.9868 30.4011 11.9802C30.6387 11.8119 30.9639 11.5482 31.2893 11.1822C31.9273 10.4644 32.5705 9.35491 32.5705 7.71403C32.5705 6.07316 31.9273 4.96368 31.2893 4.24591C30.9639 3.87982 30.6387 3.61613 30.4011 3.44789C30.3918 3.44125 30.3825 3.43478 30.3735 3.42846L5.75637 3.42846C6.38681 4.54025 6.85709 5.96154 6.85709 7.71403C6.85709 9.46652 6.38681 10.8878 5.75637 11.9996L30.3735 11.9996ZM0.933174 12.188L0.934037 12.1875C0.932357 12.1884 0.931873 12.1887 0.933174 12.188Z" fill="#FBBC15"/>
</svg>
