<svg width="58" height="18" viewBox="0 0 58 18" fill="none" xmlns="http://www.w3.org/2000/svg">
<path d="M25.134 17.7404H20.4355L23.3743 0.315918H28.0724L25.134 17.7404Z" fill="#555557"/>
<path d="M42.1662 0.741829C41.2395 0.38927 39.7696 0 37.9521 0C33.3123 0 30.0449 2.37257 30.0249 5.76463C29.9864 8.26729 32.3642 9.65732 34.1427 10.4918C35.9604 11.3445 36.5783 11.901 36.5783 12.6611C36.5598 13.8284 35.1095 14.3665 33.7568 14.3665C31.8809 14.3665 30.8758 14.0891 29.3484 13.4396L28.7297 13.1612L28.0723 17.0727C29.1742 17.5541 31.2045 17.9813 33.3123 18C38.2422 18 41.4517 15.6641 41.4897 12.0494C41.5085 10.0658 40.2529 8.54594 37.5459 7.30397C35.9026 6.50671 34.8962 5.96912 34.8962 5.15338C34.9155 4.4118 35.7474 3.65223 37.6024 3.65223C39.1299 3.61503 40.2521 3.9671 41.1023 4.31941L41.5272 4.50444L42.1662 0.741829Z" fill="#555557"/>
<path d="M48.4098 11.5675C48.7968 10.5665 50.2856 6.6923 50.2856 6.6923C50.2661 6.7295 50.6718 5.6728 50.9038 5.0241L51.2322 6.5255C51.2322 6.5255 52.1219 10.6963 52.3151 11.5675C51.5808 11.5675 49.3378 11.5675 48.4098 11.5675ZM54.2094 0.315918H50.5752C49.4545 0.315918 48.603 0.630783 48.1195 1.76163L41.1406 17.7402H46.0705C46.0705 17.7402 46.8821 15.5896 47.0566 15.1264C47.5974 15.1264 52.3932 15.1264 53.089 15.1264C53.2238 15.7381 53.6496 17.7402 53.6496 17.7402H57.9998L54.2094 0.315918Z" fill="#555557"/>
<path d="M16.5101 0.315918L11.9088 12.1977L11.406 9.78797C10.5553 7.00741 7.88741 3.98638 4.91016 2.48425L9.12477 17.7219H14.0932L21.4783 0.315918H16.5101Z" fill="#555557"/>
<path d="M7.63661 0.315918H0.0773344L0 0.667985C5.89671 2.11395 9.80198 5.59939 11.4065 9.78871L9.76319 1.78061C9.49265 0.667738 8.66123 0.352628 7.63661 0.315918Z" fill="#FAA61A"/>
</svg>
