<svg width="21" height="25" viewBox="0 0 21 25" fill="none" xmlns="http://www.w3.org/2000/svg">
<path d="M10.5 0.5C11.5262 0.499999 12.5132 0.894435 13.2568 1.60172C14.0004 2.30901 14.4437 3.27504 14.495 4.3L14.5 4.5H19.5C19.7549 4.50028 20 4.59788 20.1854 4.77285C20.3707 4.94782 20.4822 5.18695 20.4972 5.44139C20.5121 5.69584 20.4293 5.94638 20.2657 6.14183C20.1021 6.33729 19.8701 6.4629 19.617 6.493L19.5 6.5H18.651L17.471 21.053C17.3949 21.9921 16.9681 22.8681 16.2754 23.5068C15.5828 24.1455 14.6752 24.5001 13.733 24.5H7.267C6.32484 24.5001 5.41719 24.1455 4.72457 23.5068C4.03195 22.8681 3.60513 21.9921 3.529 21.053L2.348 6.5H1.5C1.25507 6.49997 1.01866 6.41004 0.835628 6.24728C0.652593 6.08453 0.535657 5.86025 0.507 5.617L0.5 5.5C0.500032 5.25507 0.589956 5.01866 0.752715 4.83563C0.915474 4.65259 1.13975 4.53566 1.383 4.507L1.5 4.5H6.5C6.5 3.43913 6.92143 2.42172 7.67157 1.67157C8.42172 0.921427 9.43913 0.5 10.5 0.5ZM8.25 9.75C8.06876 9.75001 7.89366 9.81564 7.75707 9.93477C7.62048 10.0539 7.53165 10.2184 7.507 10.398L7.5 10.5V18.5L7.507 18.602C7.5317 18.7815 7.62055 18.946 7.75714 19.0651C7.89372 19.1842 8.0688 19.2498 8.25 19.2498C8.4312 19.2498 8.60628 19.1842 8.74286 19.0651C8.87945 18.946 8.9683 18.7815 8.993 18.602L9 18.5V10.5L8.993 10.398C8.96835 10.2184 8.87952 10.0539 8.74293 9.93477C8.60634 9.81564 8.43124 9.75001 8.25 9.75ZM12.75 9.75C12.5688 9.75001 12.3937 9.81564 12.2571 9.93477C12.1205 10.0539 12.0316 10.2184 12.007 10.398L12 10.5V18.5L12.007 18.602C12.0317 18.7815 12.1206 18.946 12.2571 19.0651C12.3937 19.1842 12.5688 19.2498 12.75 19.2498C12.9312 19.2498 13.1063 19.1842 13.2429 19.0651C13.3794 18.946 13.4683 18.7815 13.493 18.602L13.5 18.5V10.5L13.493 10.398C13.4684 10.2184 13.3795 10.0539 13.2429 9.93477C13.1063 9.81564 12.9312 9.75001 12.75 9.75ZM10.5 2.5C9.99542 2.49984 9.50943 2.69041 9.13945 3.0335C8.76947 3.37659 8.54284 3.84684 8.505 4.35L8.5 4.5H12.5L12.495 4.35C12.4572 3.84684 12.2305 3.37659 11.8605 3.0335C11.4906 2.69041 11.0046 2.49984 10.5 2.5Z" fill="#ED0B4C" fill-opacity="0.9"/>
</svg>
