<svg width="101" height="101" viewBox="0 0 101 101" fill="none" xmlns="http://www.w3.org/2000/svg">
<path d="M94.0351 27.3182C93.5401 25.3407 92.5321 23.5289 91.1128 22.0657C89.6935 20.6025 87.9132 19.5398 85.9518 18.9849C78.7851 17.2349 50.1184 17.2349 50.1184 17.2349C50.1184 17.2349 21.4518 17.2349 14.2851 19.1515C12.3236 19.7065 10.5433 20.7692 9.12404 22.2324C7.70475 23.6956 6.69672 25.5074 6.20176 27.4849C4.89016 34.758 4.24858 42.1362 4.2851 49.5265C4.23834 56.9725 4.87996 64.4069 6.20176 71.7349C6.74743 73.6509 7.77804 75.3938 9.19403 76.7952C10.61 78.1966 12.3635 79.2091 14.2851 79.7349C21.4518 81.6515 50.1184 81.6515 50.1184 81.6515C50.1184 81.6515 78.7851 81.6515 85.9518 79.7349C87.9132 79.1799 89.6935 78.1172 91.1128 76.654C92.5321 75.1908 93.5401 73.379 94.0351 71.4015C95.3366 64.1831 95.9781 56.8612 95.9518 49.5265C95.9985 42.0805 95.3569 34.6461 94.0351 27.3182V27.3182Z" stroke="black" stroke-width="4" stroke-linecap="round" stroke-linejoin="round"/>
<path d="M40.7434 63.1519L64.7017 49.5269L40.7434 35.9019V63.1519Z" stroke="black" stroke-width="4" stroke-linecap="round" stroke-linejoin="round"/>
</svg>
